<svg xmlns="http://www.w3.org/2000/svg" width="25.923" height="36.018" viewBox="0 0 25.923 36.018"><defs><style>.a{fill:none;stroke:#1c1c1c;stroke-width:2px;}</style></defs><g transform="translate(1.001 1)"><path class="a" d="M1290.24,243.293a.722.722,0,0,1-.719-.729c.044-4.607.59-5.477,4.4-8.476,2.7-2.151,3.352-3.051,3.352-4.752,0-2.651-2.152-4.5-5.153-4.5-3.526,0-5.374,1.635-5.666,4.947a.718.718,0,0,1-.714.656h-5.016a.723.723,0,0,1-.719-.782c.528-6.552,5.286-10.675,12.314-10.675,6.954,0,11.606,4.052,11.606,10.106a8.934,8.934,0,0,1-2,5.853,20.4,20.4,0,0,1-4.052,3.552,4.8,4.8,0,0,0-2.046,4.1.723.723,0,0,1-.718.7Zm5.413,9.7h-5.566a.719.719,0,0,1-.719-.719v-5.566a.719.719,0,0,1,.719-.719h5.566a.719.719,0,0,1,.719.719v5.566A.719.719,0,0,1,1295.653,253Z" transform="translate(-1280.003 -218.98)"/></g></svg>