<svg xmlns="http://www.w3.org/2000/svg" width="36.758" height="27.128" viewBox="0 0 36.758 27.128"><defs><style>.a{fill:#0a0a0a;}</style></defs><g transform="translate(14.741 5.667)"><g transform="translate(0)"><path class="a" d="M128.042,936.877h1.443v6.252l5.094-6.252h1.835l-5.539,6.554,6.821,8.1h-1.888l-6.323-7.766v7.784h-1.443Z" transform="translate(-128.042 -936.877)"/></g></g><path class="a" d="M110.573,952.854q-.991,0-1.943-.092c-4.353-.423-7.5-2.262-8.873-5.175s-.772-6.513,1.681-10.134A29.41,29.41,0,0,1,126.2,925.818c4.353.423,7.5,2.262,8.874,5.175s.772,6.513-1.681,10.134A27.176,27.176,0,0,1,122.448,950,28.461,28.461,0,0,1,110.573,952.854ZM124.306,926.9a27.43,27.43,0,0,0-11.42,2.751c-9.148,4.3-14.559,12.12-12.061,17.437s11.972,6.144,21.121,1.846,14.559-12.12,12.061-17.436C132.585,928.47,128.9,926.9,124.306,926.9Z" transform="translate(-99.037 -925.726)"/></svg>