<svg xmlns="http://www.w3.org/2000/svg" viewBox="0 0 165.31 112.76"><defs><style>.cls-1{fill:#c1c1c1;}.cls-2{fill:#999;}.cls-3{fill:#d8d8d8;}.cls-4{fill:#986647;}.cls-5{fill:#ad7455;}.cls-6{fill:none;}.cls-7{fill:#b38162;}.cls-8{fill:#96dd5e;}.cls-9{fill:#519e2e;}.cls-10{fill:#83af69;}.cls-11{fill:#51bc24;}.cls-12{fill:#c6c6c6;}.cls-13{fill:#9113d3;}.cls-14{fill:#631c9b;}.cls-15{fill:#a241ef;}.cls-16{fill:#4b1a7a;}.cls-17{fill:#4c4c4c;}.cls-18{fill:#1c1c1c;}.cls-19{fill:#d9e539;}.cls-20{fill:#666;}.cls-21{fill:#a0a0a0;}.cls-22{fill:#ccc;}.cls-23{fill:#a8a2a6;}.cls-24{fill:#7c7c7c;}</style></defs><g id="Camada_2" data-name="Camada 2"><g id="Camada_1-2" data-name="Camada 1"><g id="lounge"><g id="lounge-2" data-name="lounge"><g id="Caminho_1611" data-name="Caminho 1611"><path class="cls-1" d="M165.31,65.4,82.14,112.76,0,65.4V61.89L82.65,20.65l82.66,41.24Z"/></g><g id="Caminho_1612" data-name="Caminho 1612"><path class="cls-2" d="M82.65,101.93l-.51,7.64v3.19L165.31,65.4V61.88Z"/></g><g id="Caminho_1613" data-name="Caminho 1613"><path class="cls-3" d="M165.31,61.89,82.14,109.57,0,62.15,82.14,14.72Z"/></g><g id="Grupo_948" data-name="Grupo 948"><g id="Caminho_1614" data-name="Caminho 1614"><path class="cls-4" d="M27.46,58.58l5.3,1.05v-6l-5.3,3Z"/></g><g id="Caminho_1615" data-name="Caminho 1615"><path class="cls-5" d="M37.49,60.56l-4.79-.93v-6l5.15,2.91Z"/></g><g id="Caminho_1616" data-name="Caminho 1616"><path class="cls-6" d="M37.25,56.4l-1.53.14-3.18.19-4.4-.33L32.7,59Z"/></g><g id="Caminho_1617" data-name="Caminho 1617"><path class="cls-7" d="M27.4,56.4h.74l4.56-2.63,4.55,2.63H38l-5.3-3.06Z"/></g><g id="Grupo_947" data-name="Grupo 947"><g id="Caminho_1618" data-name="Caminho 1618"><path class="cls-8" d="M33.26,60.13a1.39,1.39,0,0,1-.35,0,1.5,1.5,0,0,1-1.11-1.8A8.76,8.76,0,0,1,32.68,56a12.29,12.29,0,0,1,5.5-4.85,1.5,1.5,0,1,1,1.22,2.73,9.38,9.38,0,0,0-4.13,3.63A5.75,5.75,0,0,0,34.72,59,1.5,1.5,0,0,1,33.26,60.13Z"/></g><g id="Caminho_1619" data-name="Caminho 1619"><path class="cls-9" d="M33.06,60.89a1.5,1.5,0,0,1-1.49-1.34,13.24,13.24,0,0,0-6.41-10A1.5,1.5,0,1,1,26.69,47a16.23,16.23,0,0,1,7.86,12.28,1.5,1.5,0,0,1-1.34,1.65Z"/></g><g id="Caminho_1620" data-name="Caminho 1620"><path class="cls-8" d="M33.41,61.74a1.51,1.51,0,0,1-1.49-1.33A21.53,21.53,0,0,1,34.6,47.33l0-.09a13.53,13.53,0,0,0,1.46-2.86,1.5,1.5,0,0,1,2.81,1,16.94,16.94,0,0,1-1.74,3.42A18.52,18.52,0,0,0,34.9,60.07a1.5,1.5,0,0,1-1.32,1.66Z"/></g><g id="Caminho_1621" data-name="Caminho 1621"><path class="cls-8" d="M32.85,60.56a1.5,1.5,0,0,1-1.49-1.35l-.67-7a45.16,45.16,0,0,0-.76-5.6,1.5,1.5,0,0,1,3-.58,51.33,51.33,0,0,1,.8,5.92l.67,6.93A1.51,1.51,0,0,1,33,60.56Z"/></g><g id="Grupo_946" data-name="Grupo 946"><g id="Caminho_1622" data-name="Caminho 1622"><path class="cls-10" d="M32.13,60.33A1.48,1.48,0,0,1,31,59.79c-1.61-1.94-3.94-3.11-6.81-4.43a1.5,1.5,0,1,1,1.25-2.72c2.54,1.16,5.7,2.62,7.87,5.24a1.49,1.49,0,0,1-1.16,2.45Z"/></g><g id="Caminho_1623" data-name="Caminho 1623"><path class="cls-10" d="M32.16,58.34a1.49,1.49,0,0,1-1-.44,15.49,15.49,0,0,0-7-4A1.5,1.5,0,0,1,24.79,51a18.41,18.41,0,0,1,8.43,4.77,1.51,1.51,0,0,1,0,2.13A1.53,1.53,0,0,1,32.16,58.34Z"/></g><g id="Caminho_1624" data-name="Caminho 1624"><path class="cls-11" d="M30.87,56.41a1.49,1.49,0,0,1-1.31-.79,15,15,0,0,0-3-3.85,1.5,1.5,0,0,1,2-2.21,18,18,0,0,1,3.61,4.63,1.49,1.49,0,0,1-.6,2A1.44,1.44,0,0,1,30.87,56.41Z"/></g><g id="Caminho_1625" data-name="Caminho 1625"><path class="cls-10" d="M32.77,56.45l-.22,0a1.5,1.5,0,0,1-1.27-1.7,58.16,58.16,0,0,1,1.84-8.25,1.5,1.5,0,0,1,2.87.87,55,55,0,0,0-1.74,7.81A1.5,1.5,0,0,1,32.77,56.45Z"/></g><g id="Caminho_1626" data-name="Caminho 1626"><path class="cls-10" d="M33.26,59.71a1.5,1.5,0,0,1-1.2-2.4c3-4,6.49-4.67,9-5.16l.69-.14a1.5,1.5,0,1,1,.6,2.94l-.72.14c-2.42.47-4.91.95-7.21,4A1.52,1.52,0,0,1,33.26,59.71Z"/></g><g id="Caminho_1627" data-name="Caminho 1627"><path class="cls-10" d="M32.38,58.26a1.52,1.52,0,0,1-1.42-1c-1.48-4.1-3.1-8.2-4.82-12.21a1.51,1.51,0,0,1,.79-2,1.49,1.49,0,0,1,2,.79c1.74,4.06,3.38,8.22,4.89,12.36a1.51,1.51,0,0,1-.9,1.93A1.57,1.57,0,0,1,32.38,58.26Z"/></g><g id="Caminho_1628" data-name="Caminho 1628"><path class="cls-11" d="M33.26,61a1.5,1.5,0,0,1-1.47-1.17A89.88,89.88,0,0,1,31,50.56c0-3.13-.08-6.37.13-9.59a1.5,1.5,0,1,1,3,.2c-.21,3.1-.17,6.28-.13,9.35,0,1.52.43,7.44.7,8.62a1.51,1.51,0,0,1-1.13,1.8A1.84,1.84,0,0,1,33.26,61Z"/></g></g><g id="Caminho_1629" data-name="Caminho 1629"><path class="cls-8" d="M32.05,60a1.5,1.5,0,0,1-1.34-.81A30.39,30.39,0,0,0,25.62,52,1.5,1.5,0,0,1,27.79,50a34,34,0,0,1,5.59,7.83,1.5,1.5,0,0,1-.65,2A1.4,1.4,0,0,1,32.05,60Z"/></g><g id="Caminho_1630" data-name="Caminho 1630"><path class="cls-9" d="M33.06,60.89l-.29,0a1.51,1.51,0,0,1-1.18-1.77c1.27-6.47,3.91-9.25,5.9-10.44A1.5,1.5,0,1,1,39,51.24c-1.47.88-3.44,3-4.5,8.44A1.5,1.5,0,0,1,33.06,60.89Z"/></g></g><g id="Caminho_1631" data-name="Caminho 1631"><path class="cls-5" d="M32.7,65.44l-5.3-3.06v-6l5.3,3Z"/></g><g id="Caminho_1632" data-name="Caminho 1632"><path class="cls-4" d="M32.7,65.44l5.3-3v-6l-5.3,3Z"/></g><g id="Caminho_1633" data-name="Caminho 1633"><path class="cls-7" d="M32.7,59,28.15,56.4H27.4l5.3,3,5.3-3h-.74Z"/></g></g><g id="Caminho_1634" data-name="Caminho 1634"><path class="cls-12" d="M84.7,50.29,64.17,62.15,84.7,74l20.53-11.85Z"/></g><g id="Grupo_950" data-name="Grupo 950"><g id="Caminho_1635" data-name="Caminho 1635"><path class="cls-4" d="M78.44,22.16l4.35.86v-4.9l-4.35,2.45Z"/></g><g id="Caminho_1636" data-name="Caminho 1636"><path class="cls-5" d="M86.66,23.78,82.74,23v-4.9L87,20.51Z"/></g><g id="Caminho_1637" data-name="Caminho 1637"><path class="cls-6" d="M86.47,20.37l-1.26.12-2.6.16L79,20.37l3.73,2.11Z"/></g><g id="Caminho_1638" data-name="Caminho 1638"><path class="cls-7" d="M78.4,20.38H79l3.73-2.16,3.73,2.16h.61l-4.34-2.51Z"/></g><g id="Grupo_949" data-name="Grupo 949"><g id="Caminho_1639" data-name="Caminho 1639"><path class="cls-8" d="M82.73,23.81h-.08a.38.38,0,0,1-.28-.45,10.14,10.14,0,0,1,1-2.6,14.63,14.63,0,0,1,6.47-5.69.38.38,0,0,1,.31.69A13.74,13.74,0,0,0,84,21.13a9.47,9.47,0,0,0-.92,2.39A.38.38,0,0,1,82.73,23.81Z"/></g><g id="Caminho_1640" data-name="Caminho 1640"><path class="cls-9" d="M83.3,24.81a.37.37,0,0,1-.37-.33,19,19,0,0,0-9.19-14.35.37.37,0,1,1,.38-.64A19.7,19.7,0,0,1,83.67,24.4a.36.36,0,0,1-.33.41Z"/></g><g id="Caminho_1641" data-name="Caminho 1641"><path class="cls-8" d="M83.47,29.19a.39.39,0,0,1-.38-.34c-.62-5.47.47-14.47,3.33-19.47a21.12,21.12,0,0,0,2.09-4.1A.37.37,0,0,1,89,5.06a.38.38,0,0,1,.22.48,20.82,20.82,0,0,1-2.16,4.23c-2.67,4.7-3.82,13.62-3.21,19a.37.37,0,0,1-.33.41Z"/></g><g id="Caminho_1642" data-name="Caminho 1642"><path class="cls-8" d="M82.74,24.37a.39.39,0,0,1-.38-.34l-.87-9.13a63,63,0,0,0-1-7.51.37.37,0,1,1,.73-.15,64.7,64.7,0,0,1,1,7.59L83.11,24a.38.38,0,0,1-.34.41Z"/></g><g id="Caminho_1643" data-name="Caminho 1643"><path class="cls-10" d="M83.12,23a.38.38,0,0,1-.34-.2c-1.82-3.47-5.25-6-8-8.07a.38.38,0,1,1,.45-.6c2.82,2.09,6.32,4.7,8.23,8.32a.39.39,0,0,1-.16.51A.33.33,0,0,1,83.12,23Z"/></g><g id="Caminho_1644" data-name="Caminho 1644"><path class="cls-10" d="M82.76,21.79a.34.34,0,0,1-.26-.11,21.75,21.75,0,0,0-10-5.65.38.38,0,0,1-.27-.46.37.37,0,0,1,.45-.27A22.52,22.52,0,0,1,83,21.15a.39.39,0,0,1,0,.53A.4.4,0,0,1,82.76,21.79Z"/></g><g id="Caminho_1645" data-name="Caminho 1645"><path class="cls-11" d="M82.52,21.7a.38.38,0,0,1-.33-.2A21.2,21.2,0,0,0,77.92,16a.38.38,0,1,1,.51-.55,22.07,22.07,0,0,1,4.42,5.66.38.38,0,0,1-.15.51A.41.41,0,0,1,82.52,21.7Z"/></g><g id="Caminho_1646" data-name="Caminho 1646"><path class="cls-10" d="M82.62,19h-.05a.38.38,0,0,1-.32-.42,74.06,74.06,0,0,1,2.36-10.6.38.38,0,0,1,.47-.25.38.38,0,0,1,.25.47A72.39,72.39,0,0,0,83,18.64.39.39,0,0,1,82.62,19Z"/></g><g id="Caminho_1647" data-name="Caminho 1647"><path class="cls-10" d="M82.26,23.16a.39.39,0,0,1-.23-.07.38.38,0,0,1-.07-.53c3.56-4.75,7.63-5.54,10.9-6.17l.92-.18a.38.38,0,0,1,.44.29.39.39,0,0,1-.29.45l-.93.18c-3.31.64-7,1.36-10.44,5.88A.38.38,0,0,1,82.26,23.16Z"/></g><g id="Caminho_1648" data-name="Caminho 1648"><path class="cls-10" d="M82.74,21.76a.39.39,0,0,1-.36-.25c-2-5.4-4.1-10.82-6.36-16.11a.37.37,0,0,1,.69-.29c2.27,5.3,4.41,10.73,6.38,16.14a.37.37,0,0,1-.23.48A.27.27,0,0,1,82.74,21.76Z"/></g><g id="Caminho_1649" data-name="Caminho 1649"><path class="cls-11" d="M83.27,24.91a.38.38,0,0,1-.37-.29c-.41-1.85-1-9.89-1-11.81,0-4.08-.1-8.31.18-12.46A.35.35,0,0,1,82.5,0a.39.39,0,0,1,.35.4c-.28,4.12-.23,8.33-.18,12.4,0,1.85.57,9.89,1,11.65a.38.38,0,0,1-.28.45Z"/></g><g id="Caminho_1650" data-name="Caminho 1650"><path class="cls-8" d="M83.3,24.18A.39.39,0,0,1,83,24a42,42,0,0,0-7-9.73.37.37,0,0,1,0-.53.38.38,0,0,1,.53,0,43,43,0,0,1,7.06,9.91.36.36,0,0,1-.16.5A.34.34,0,0,1,83.3,24.18Z"/></g><g id="Caminho_1651" data-name="Caminho 1651"><path class="cls-9" d="M82.6,24.8h-.08a.38.38,0,0,1-.29-.44c1.55-7.92,4.66-11.25,7-12.65a.37.37,0,0,1,.51.13.38.38,0,0,1-.13.52c-2.2,1.32-5.15,4.49-6.65,12.14A.36.36,0,0,1,82.6,24.8Z"/></g></g><g id="Caminho_1652" data-name="Caminho 1652"><path class="cls-5" d="M82.74,31.06,78.4,28.55V20.38l4.34,2.45Z"/></g><g id="Caminho_1653" data-name="Caminho 1653"><path class="cls-4" d="M82.73,31.06l4.34-2.51V20.38l-4.34,2.45Z"/></g><g id="Caminho_1654" data-name="Caminho 1654"><path class="cls-7" d="M82.74,22.48,79,20.37H78.4l4.34,2.46,4.33-2.46h-.6Z"/></g></g><g id="Grupo_959" data-name="Grupo 959"><g id="Grupo_952" data-name="Grupo 952"><g id="Grupo_951" data-name="Grupo 951"><g id="Caminho_1655" data-name="Caminho 1655"><path class="cls-13" d="M67.33,28l-3.62,2.08L77,38l3.25-2.25Z"/></g><g id="Caminho_1656" data-name="Caminho 1656"><path class="cls-14" d="M77,38V49l3.25-1.81V35.77Z"/></g></g><g id="Caminho_1657" data-name="Caminho 1657"><path class="cls-15" d="M68.22,32.78,77,38V49l-4.78,1.44-5.05-9.65,1.28-5.4Z"/></g><g id="Caminho_1658" data-name="Caminho 1658"><path class="cls-15" d="M43.66,43.6v-6l2.48.93,1.45,1.21.75,5.1-.2,2.56-2-.62-.8-.94Z"/></g><g id="Caminho_1659" data-name="Caminho 1659"><path class="cls-14" d="M46.14,38.5l1.42,8.87,1.68-1L68.73,35.18l-1.6-8.69Z"/></g><g id="Caminho_1660" data-name="Caminho 1660"><path class="cls-15" d="M67.13,26.49l-2.37-.92-21.1,12,2.47.94Z"/></g><g id="Caminho_1661" data-name="Caminho 1661"><path class="cls-13" d="M55.49,52.64,77,40.11l-8.24-4.93L49.24,46.4v1.37L54,52.37Z"/></g><g id="Caminho_1662" data-name="Caminho 1662"><path class="cls-15" d="M41.18,45.08V56.72l11.36,6.56V51.74Z"/></g><g id="Caminho_1663" data-name="Caminho 1663"><path class="cls-14" d="M55.5,50.16l-3,1.59V63.28l3-1.7Z"/></g><g id="Caminho_1664" data-name="Caminho 1664"><path class="cls-13" d="M41.18,45.08l2.93-1.75,11.38,6.83-3,1.59Z"/></g><g id="Caminho_1665" data-name="Caminho 1665"><path class="cls-14" d="M55.49,52.64V57L77,44.47V40.11Z"/></g><g id="Caminho_1666" data-name="Caminho 1666"><path class="cls-16" d="M55.49,61.58V57L77,44.47V49Z"/></g></g><g id="Grupo_954" data-name="Grupo 954"><g id="Grupo_953" data-name="Grupo 953"><g id="Caminho_1667" data-name="Caminho 1667"><path class="cls-17" d="M84.21,68.29l-1-.58v-7l1,.32Z"/></g><g id="Caminho_1668" data-name="Caminho 1668"><path class="cls-18" d="M84.21,68.29l1-.58v-7l-1,.32Z"/></g><g id="Caminho_1669" data-name="Caminho 1669"><path class="cls-18" d="M91.4,64.73l-1-.58v-7l1,.33Z"/></g><g id="Caminho_1670" data-name="Caminho 1670"><path class="cls-17" d="M91.4,64.73l1-.58v-7l-1,.33Z"/></g><g id="Caminho_1671" data-name="Caminho 1671"><path class="cls-17" d="M77.77,64.73l-1-.58v-7l1,.33Z"/></g><g id="Caminho_1672" data-name="Caminho 1672"><path class="cls-18" d="M77.77,64.73l1-.58v-7l-1,.33Z"/></g></g><g id="Elipse_129" data-name="Elipse 129"><ellipse class="cls-18" cx="84.54" cy="58.51" rx="9.62" ry="5.55"/></g><g id="Elipse_130" data-name="Elipse 130"><ellipse class="cls-17" cx="84.54" cy="57.34" rx="9.62" ry="5.55"/></g></g><g id="Grupo_956" data-name="Grupo 956"><g id="Grupo_955" data-name="Grupo 955"><g id="Caminho_1673" data-name="Caminho 1673"><path class="cls-13" d="M103.2,25.26l3.08,1.84L94.42,34.16l-3-2.1Z"/></g><g id="Caminho_1674" data-name="Caminho 1674"><path class="cls-14" d="M94.41,34.16v11l-3.15-1.76.1-11.3Z"/></g></g><g id="Caminho_1675" data-name="Caminho 1675"><path class="cls-15" d="M103.15,28.93l-8.73,5.23v11l4.77,1.44,5-9.66L103,31.5Z"/></g><g id="Caminho_1676" data-name="Caminho 1676"><path class="cls-15" d="M116,32.9v-6l-2.48.93L112.06,29l-.75,5.09.2,2.57,2-.63.8-.93Z"/></g><g id="Caminho_1677" data-name="Caminho 1677"><path class="cls-14" d="M113.51,27.81l-1.42,8.86-1.68-1-7.76-4.38,1.59-8.69Z"/></g><g id="Caminho_1678" data-name="Caminho 1678"><path class="cls-15" d="M104.24,22.64l2.38-.92L116,26.87l-2.48.93Z"/></g><g id="Caminho_1679" data-name="Caminho 1679"><path class="cls-13" d="M104.15,41.94l-9.73-5.68,8.23-4.94,7.76,4.38v1.37l-4.78,4.6Z"/></g><g id="Caminho_1680" data-name="Caminho 1680"><path class="cls-15" d="M118.46,34.37V46L107.1,52.58V41Z"/></g><g id="Caminho_1681" data-name="Caminho 1681"><path class="cls-14" d="M104.16,39.46,107.1,41V52.58l-2.94-1.7Z"/></g><g id="Caminho_1682" data-name="Caminho 1682"><path class="cls-13" d="M118.46,34.37l-2.93-1.74-11.38,6.83L107.1,41Z"/></g><g id="Caminho_1683" data-name="Caminho 1683"><path class="cls-14" d="M104.15,41.94v4.33l-9.73-5.66V36.26Z"/></g><g id="Caminho_1684" data-name="Caminho 1684"><path class="cls-16" d="M104.15,50.88v-4.6l-9.73-5.66v4.5Z"/></g></g><g id="Grupo_957" data-name="Grupo 957"><g id="Caminho_1685" data-name="Caminho 1685"><path class="cls-13" d="M90.38,70.41l19-10.92,4.34,2.16-.39,5.28-13.81,10-6.38-2.67Z"/></g><g id="Caminho_1686" data-name="Caminho 1686"><path class="cls-15" d="M97.6,78,85.72,71.26V83.19L97.6,90.05Z"/></g><g id="Caminho_1687" data-name="Caminho 1687"><path class="cls-13" d="M124.75,62.22l-11.52-7-3,1.83,11.88,6.77Z"/></g><g id="Caminho_1688" data-name="Caminho 1688"><path class="cls-15" d="M97.25,76.66v-8.3l3.33,1.54V80.14Z"/></g><g id="Caminho_1689" data-name="Caminho 1689"><path class="cls-15" d="M110.18,57v3.8l3.53,2.39,1.06-3.57Z"/></g><g id="Caminho_1690" data-name="Caminho 1690"><path class="cls-14" d="M100.5,76.33l21.56-12.55V57.46L100.58,69.9v5.94Z"/></g><g id="Caminho_1691" data-name="Caminho 1691"><path class="cls-13" d="M97.25,68.37l3.33,1.53,21.48-12.44-3.2-1.7Z"/></g><g id="Caminho_1692" data-name="Caminho 1692"><path class="cls-14" d="M97.6,78v12l27.15-15.7V62.23Z"/></g><g id="Caminho_1693" data-name="Caminho 1693"><path class="cls-13" d="M100.5,76.34,88.77,69.43l-3,1.83L97.61,78Z"/></g></g><g id="Grupo_958" data-name="Grupo 958"><g id="Caminho_1694" data-name="Caminho 1694"><path class="cls-13" d="M68.16,70l-8.54-4.53-4.34,2.16.39,5.28L59,76.51l6.37-2.66Z"/></g><g id="Caminho_1695" data-name="Caminho 1695"><path class="cls-15" d="M60.93,77.62l11.88-6.76V82.78L60.93,89.64Z"/></g><g id="Caminho_1696" data-name="Caminho 1696"><path class="cls-13" d="M44.24,68.21l11.53-7,3,1.84L46.93,69.77Z"/></g><g id="Caminho_1697" data-name="Caminho 1697"><path class="cls-15" d="M61.28,76.26V68L58,69.49V79.74Z"/></g><g id="Caminho_1698" data-name="Caminho 1698"><path class="cls-15" d="M58.81,63v3.8l-3.52,2.38-1.06-3.57Z"/></g><g id="Caminho_1699" data-name="Caminho 1699"><path class="cls-14" d="M58,75.94l-11-6.17V63.45l11,6v6.44Z"/></g><g id="Caminho_1700" data-name="Caminho 1700"><path class="cls-13" d="M61.28,68,58,69.5l-11-6,3.2-1.7Z"/></g><g id="Caminho_1701" data-name="Caminho 1701"><path class="cls-14" d="M60.93,77.62v12l-16.69-9.3V68.21Z"/></g><g id="Caminho_1702" data-name="Caminho 1702"><path class="cls-13" d="M58,76l11.81-7,3,1.84L60.93,77.62Z"/></g></g></g><g id="Grupo_962" data-name="Grupo 962"><g id="Elipse_131" data-name="Elipse 131"><ellipse class="cls-19" cx="132.09" cy="25.1" rx="3.5" ry="1.97"/></g><g id="Elipse_132" data-name="Elipse 132"><ellipse class="cls-20" cx="132.16" cy="54.64" rx="3.08" ry="1.78"/></g><g id="Elipse_133" data-name="Elipse 133"><ellipse class="cls-21" cx="132.16" cy="54.22" rx="3.08" ry="1.78"/></g><g id="Linha_76" data-name="Linha 76"><path class="cls-22" d="M132.09,55.1a1.5,1.5,0,0,1-1.5-1.5V32.15a1.5,1.5,0,0,1,3,0V53.6A1.5,1.5,0,0,1,132.09,55.1Z"/></g><g id="Caminho_1703" data-name="Caminho 1703"><path class="cls-23" d="M132.09,22.93c-2.08,0-3.75,1-3.75,2.17s1.67,2.16,3.75,2.16,3.75-1,3.75-2.16S134.16,22.93,132.09,22.93Zm0,3.87c-1.75,0-3.17-.77-3.17-1.7s1.42-1.7,3.17-1.7,3.16.76,3.16,1.7-1.41,1.69-3.16,1.69Z"/></g><g id="Grupo_961" data-name="Grupo 961"><g id="Elipse_134" data-name="Elipse 134"><ellipse class="cls-24" cx="132.09" cy="32.28" rx="3.75" ry="2.17"/></g><g id="Grupo_960" data-name="Grupo 960"><g id="Caminho_1704" data-name="Caminho 1704"><path class="cls-24" d="M128.36,24.87h0v.23A.9.9,0,0,1,128.36,24.87Z"/></g><g id="Caminho_1705" data-name="Caminho 1705"><path class="cls-24" d="M135.84,25.1v-.23h0A1.79,1.79,0,0,1,135.84,25.1Z"/></g><g id="Caminho_1706" data-name="Caminho 1706"><path class="cls-24" d="M132.09,27.26c-2.08,0-3.75-1-3.75-2.16V32h7.5V25.1C135.84,26.29,134.16,27.26,132.09,27.26Z"/></g></g></g></g></g></g></g></g></svg>