<svg xmlns="http://www.w3.org/2000/svg" viewBox="0 0 165.43 150.26"><defs><style>.cls-1{fill:#eaeaea;}.cls-2{fill:#c6c6c6;}.cls-3{fill:#c1c1c1;}.cls-4{fill:#999;}.cls-5{fill:#d8d8d8;}.cls-6{fill:#986647;}.cls-7{fill:#ad7455;}.cls-8{fill:none;}.cls-9{fill:#b38162;}.cls-10{fill:#96dd5e;}.cls-11{fill:#519e2e;}.cls-12{fill:#83af69;}.cls-13{fill:#51bc24;}.cls-14{fill:#a241ef;}.cls-15{fill:#631c9b;}.cls-16{fill:#9113d3;}.cls-17{fill:#666;}.cls-18{fill:#a0a0a0;}.cls-19{fill:#ccc;}.cls-20{fill:#1c1c1c;}.cls-21{fill:#4c4c4c;}.cls-22{opacity:0.42;isolation:isolate;}.cls-23{fill:#dbdbdb;}.cls-24{fill:#cecece;}</style></defs><g id="Camada_2" data-name="Camada 2"><g id="Camada_1-2" data-name="Camada 1"><g id="pavillion"><g id="Grupo_1061" data-name="Grupo 1061"><g id="Grupo_964" data-name="Grupo 964"><g id="Caminho_1709" data-name="Caminho 1709"><path class="cls-1" d="M100.18,49.78l-2.84-1.65V17l2.84,1Z"/></g><g id="Caminho_1710" data-name="Caminho 1710"><path class="cls-2" d="M100.18,49.78,103,48.13V18.07l-2.83-.15Z"/></g></g><g id="Grupo_1057" data-name="Grupo 1057"><g id="Grupo_965" data-name="Grupo 965"><g id="Caminho_1711" data-name="Caminho 1711"><path class="cls-3" d="M165.43,91.92l-101,58.34L0,113.14v-8.55L100.58,51.73l64.85,31.64Z"/></g><g id="Caminho_1712" data-name="Caminho 1712"><path class="cls-4" d="M64.85,135.17,64.39,142v8.25l101-58.34V83.37Z"/></g><g id="Caminho_1713" data-name="Caminho 1713"><path class="cls-5" d="M165.43,83.37,64.39,142,0,104.82l100.11-58.4Z"/></g></g><g id="Grupo_967" data-name="Grupo 967"><g id="Caminho_1715" data-name="Caminho 1715"><path class="cls-6" d="M55,130.26l3,.59v-3.38l-3,1.69Z"/></g><g id="Caminho_1716" data-name="Caminho 1716"><path class="cls-7" d="M60.69,131.38,58,130.85v-3.38l2.91,1.64Z"/></g><g id="Caminho_1717" data-name="Caminho 1717"><path class="cls-8" d="M60.55,129l-.86.09-1.8.1L55.4,129,58,130.48Z"/></g><g id="Caminho_1718" data-name="Caminho 1718"><path class="cls-9" d="M55,129h.42L58,127.54,60.55,129H61l-3-1.73Z"/></g><g id="Grupo_966" data-name="Grupo 966"><g id="Caminho_1719" data-name="Caminho 1719"><path class="cls-10" d="M58,131.51h-.09a.38.38,0,0,1-.28-.45,7.3,7.3,0,0,1,.7-1.82,10.23,10.23,0,0,1,4.52-4,.37.37,0,1,1,.31.68A9.42,9.42,0,0,0,59,129.61a6.64,6.64,0,0,0-.62,1.61A.37.37,0,0,1,58,131.51Z"/></g><g id="Caminho_1720" data-name="Caminho 1720"><path class="cls-11" d="M58.37,132.2a.37.37,0,0,1-.37-.33,13,13,0,0,0-6.29-9.81.38.38,0,0,1-.13-.51.38.38,0,0,1,.52-.13,13.72,13.72,0,0,1,6.64,10.37.38.38,0,0,1-.33.41Z"/></g><g id="Caminho_1721" data-name="Caminho 1721"><path class="cls-10" d="M58.48,135.22a.37.37,0,0,1-.37-.33c-.43-3.79.33-10,2.31-13.51a14,14,0,0,0,1.43-2.81.38.38,0,1,1,.7.27,14,14,0,0,1-1.5,2.93c-1.83,3.22-2.62,9.34-2.19,13a.39.39,0,0,1-.33.42Z"/></g><g id="Caminho_1722" data-name="Caminho 1722"><path class="cls-10" d="M58,131.9a.39.39,0,0,1-.38-.34l-.6-6.3a42.54,42.54,0,0,0-.7-5.17.38.38,0,0,1,.3-.44.39.39,0,0,1,.44.3,44,44,0,0,1,.71,5.24l.6,6.3a.38.38,0,0,1-.34.41Z"/></g><g id="Caminho_1723" data-name="Caminho 1723"><path class="cls-12" d="M58.24,131a.38.38,0,0,1-.33-.2c-1.25-2.37-3.6-4.12-5.49-5.52a.38.38,0,0,1,.44-.61c2,1.46,4.39,3.26,5.71,5.78a.38.38,0,0,1-.15.51A.39.39,0,0,1,58.24,131Z"/></g><g id="Caminho_1724" data-name="Caminho 1724"><path class="cls-12" d="M58,130.12a.39.39,0,0,1-.27-.11,14.83,14.83,0,0,0-6.83-3.87.38.38,0,0,1-.28-.45.38.38,0,0,1,.46-.28,15.6,15.6,0,0,1,7.18,4.07.37.37,0,0,1,0,.53A.38.38,0,0,1,58,130.12Z"/></g><g id="Caminho_1725" data-name="Caminho 1725"><path class="cls-13" d="M57.83,130.05a.39.39,0,0,1-.33-.19,14.53,14.53,0,0,0-2.92-3.74.37.37,0,0,1,0-.53.39.39,0,0,1,.53,0,15.31,15.31,0,0,1,3.08,3.94A.38.38,0,0,1,58,130,.39.39,0,0,1,57.83,130.05Z"/></g><g id="Caminho_1726" data-name="Caminho 1726"><path class="cls-12" d="M57.9,128.17h0a.38.38,0,0,1-.32-.43,50.61,50.61,0,0,1,1.63-7.32.38.38,0,0,1,.47-.26.38.38,0,0,1,.25.47,50.57,50.57,0,0,0-1.61,7.22A.38.38,0,0,1,57.9,128.17Z"/></g><g id="Caminho_1727" data-name="Caminho 1727"><path class="cls-12" d="M57.65,131.06a.39.39,0,0,1-.23-.07.38.38,0,0,1-.07-.53c2.48-3.31,5.31-3.86,7.59-4.3l.63-.12a.38.38,0,0,1,.44.29.36.36,0,0,1-.29.44l-.64.13c-2.26.44-4.82.93-7.13,4A.38.38,0,0,1,57.65,131.06Z"/></g><g id="Caminho_1728" data-name="Caminho 1728"><path class="cls-12" d="M58,130.09a.35.35,0,0,1-.35-.25c-1.36-3.72-2.83-7.46-4.39-11.1a.37.37,0,1,1,.69-.29c1.56,3.65,3,7.4,4.4,11.14a.38.38,0,0,1-.22.48Z"/></g><g id="Caminho_1729" data-name="Caminho 1729"><path class="cls-13" d="M58.35,132.27A.38.38,0,0,1,58,132a81.8,81.8,0,0,1-.68-8.17c0-2.86-.07-5.75.12-8.6a.38.38,0,0,1,.4-.35.37.37,0,0,1,.35.4c-.19,2.82-.15,5.7-.12,8.49,0,1.32.39,6.86.66,8.06a.38.38,0,0,1-.28.45Z"/></g><g id="Caminho_1730" data-name="Caminho 1730"><path class="cls-10" d="M58.37,131.77a.36.36,0,0,1-.33-.21,29.15,29.15,0,0,0-4.77-6.68.37.37,0,1,1,.54-.52,29.64,29.64,0,0,1,4.89,6.86.36.36,0,0,1-.16.5A.34.34,0,0,1,58.37,131.77Z"/></g><g id="Caminho_1731" data-name="Caminho 1731"><path class="cls-11" d="M57.88,132.19h-.07a.38.38,0,0,1-.3-.44c1.08-5.51,3.25-7.82,4.89-8.8a.38.38,0,0,1,.38.65c-1.5.89-3.5,3.06-4.53,8.29A.37.37,0,0,1,57.88,132.19Z"/></g></g><g id="Caminho_1732" data-name="Caminho 1732"><path class="cls-7" d="M58,136.39l-3-1.73V129l3,1.69Z"/></g><g id="Caminho_1733" data-name="Caminho 1733"><path class="cls-6" d="M58,136.39l3-1.73V129l-3,1.69Z"/></g><g id="Caminho_1734" data-name="Caminho 1734"><path class="cls-9" d="M58,130.48,55.41,129H55l3,1.7,3-1.7h-.42Z"/></g></g><g id="Grupo_977" data-name="Grupo 977"><g id="Grupo_971" data-name="Grupo 971"><g id="Caminho_1735" data-name="Caminho 1735"><path class="cls-14" d="M94.63,105.69v-3.54l-.86.33-.62.52.17,2.27,0,1.22.85-.5Z"/></g><g id="Caminho_1736" data-name="Caminho 1736"><path class="cls-15" d="M93.77,102.48l-.39,3.94-.94-.54L89.1,104l.69-3.73Z"/></g><g id="Caminho_1737" data-name="Caminho 1737"><path class="cls-14" d="M89.79,100.26l.81-.32,4,2.22-.86.32Z"/></g><g id="Caminho_1738" data-name="Caminho 1738"><path class="cls-16" d="M89.75,108.56l-4.19-2.44L89.1,104l3.34,1.88,1,.54-3,2Z"/></g><g id="Grupo_968" data-name="Grupo 968"><g id="Caminho_1739" data-name="Caminho 1739"><path class="cls-1" d="M89.75,113.14l-.31-.17V109.6l.31.12Z"/></g><g id="Caminho_1740" data-name="Caminho 1740"><path class="cls-2" d="M89.75,113.14l.31-.17V109.6l-.31.12Z"/></g></g><g id="Grupo_969" data-name="Grupo 969"><g id="Caminho_1741" data-name="Caminho 1741"><path class="cls-1" d="M85.87,111.37l-.31-.18v-3.37l.31.12Z"/></g><g id="Caminho_1742" data-name="Caminho 1742"><path class="cls-2" d="M85.87,111.37l.3-.18v-3.37l-.3.12Z"/></g></g><g id="Grupo_970" data-name="Grupo 970"><g id="Caminho_1743" data-name="Caminho 1743"><path class="cls-1" d="M94.33,111.1l-.31-.18v-3.37l.31.12Z"/></g><g id="Caminho_1744" data-name="Caminho 1744"><path class="cls-2" d="M94.33,111.1l.3-.18v-3.37l-.3.12Z"/></g></g><g id="Caminho_1745" data-name="Caminho 1745"><path class="cls-14" d="M94.63,105.69v1.91l-4.88,2.82v-1.86Z"/></g><g id="Caminho_1746" data-name="Caminho 1746"><path class="cls-15" d="M89.75,108.56v1.86L85.56,108v-1.87Z"/></g></g><g id="Grupo_976" data-name="Grupo 976"><g id="Grupo_972" data-name="Grupo 972"><g id="Caminho_1747" data-name="Caminho 1747"><path class="cls-1" d="M71.12,123.44l-.31-.18v-3.37l.31.13Z"/></g><g id="Caminho_1748" data-name="Caminho 1748"><path class="cls-2" d="M71.12,123.44l.3-.18v-3.37l-.3.13Z"/></g></g><g id="Grupo_973" data-name="Grupo 973"><g id="Caminho_1749" data-name="Caminho 1749"><path class="cls-1" d="M66.68,121.1l-.31-.18v-3.37l.31.12Z"/></g><g id="Caminho_1750" data-name="Caminho 1750"><path class="cls-2" d="M66.68,121.1l.31-.18v-3.37l-.31.12Z"/></g></g><g id="Grupo_974" data-name="Grupo 974"><g id="Caminho_1751" data-name="Caminho 1751"><path class="cls-1" d="M75.06,121.18l-.3-.18v-3.36l.3.12Z"/></g><g id="Caminho_1752" data-name="Caminho 1752"><path class="cls-2" d="M75.06,121.18l.31-.18v-3.36l-.31.12Z"/></g></g><g id="Grupo_975" data-name="Grupo 975"><g id="Caminho_1753" data-name="Caminho 1753"><path class="cls-16" d="M75.37,115.81l-3.86-2-1.55.75.17,2.27,1.44,1.54,2.74-1.14Z"/></g><g id="Caminho_1754" data-name="Caminho 1754"><path class="cls-14" d="M71.11,118.23l4.26-2.42v1.83l-4.26,2.52Z"/></g><g id="Caminho_1755" data-name="Caminho 1755"><path class="cls-14" d="M72.54,118.21l-.34-3.8-1.09.48v4.82Z"/></g><g id="Caminho_1756" data-name="Caminho 1756"><path class="cls-15" d="M71.11,118.08l-4.74-2.65v-3.14l4.74,2.6v3.19Z"/></g><g id="Caminho_1757" data-name="Caminho 1757"><path class="cls-16" d="M72.2,114.41l-1.09.48-4.74-2.6,1-.55Z"/></g><g id="Caminho_1758" data-name="Caminho 1758"><path class="cls-15" d="M71.11,118.08v2.08l-4.74-2.61v-2.12Z"/></g></g></g></g><g id="Grupo_987" data-name="Grupo 987"><g id="Grupo_981" data-name="Grupo 981"><g id="Caminho_1759" data-name="Caminho 1759"><path class="cls-14" d="M151.4,74.82V71.29l-.86.32-.62.53.18,2.26L150,75.62l.85-.5Z"/></g><g id="Caminho_1760" data-name="Caminho 1760"><path class="cls-15" d="M150.54,71.61l-.38,3.94-.95-.54-3.34-1.88.69-3.74Z"/></g><g id="Caminho_1761" data-name="Caminho 1761"><path class="cls-14" d="M146.56,69.39l.82-.31,4,2.21-.86.32Z"/></g><g id="Caminho_1762" data-name="Caminho 1762"><path class="cls-16" d="M146.52,77.69l-4.19-2.44,3.54-2.12L149.21,75l.95.54-3,2Z"/></g><g id="Grupo_978" data-name="Grupo 978"><g id="Caminho_1763" data-name="Caminho 1763"><path class="cls-1" d="M146.52,82.28l-.31-.18V78.73l.31.12Z"/></g><g id="Caminho_1764" data-name="Caminho 1764"><path class="cls-2" d="M146.52,82.28l.31-.18V78.73l-.31.12Z"/></g></g><g id="Grupo_979" data-name="Grupo 979"><g id="Caminho_1765" data-name="Caminho 1765"><path class="cls-1" d="M142.64,80.5l-.31-.17V77l.31.12Z"/></g><g id="Caminho_1766" data-name="Caminho 1766"><path class="cls-2" d="M142.64,80.5l.31-.17V77l-.31.12Z"/></g></g><g id="Grupo_980" data-name="Grupo 980"><g id="Caminho_1767" data-name="Caminho 1767"><path class="cls-1" d="M151.1,80.23l-.31-.18V76.68l.31.12Z"/></g><g id="Caminho_1768" data-name="Caminho 1768"><path class="cls-2" d="M151.1,80.23l.31-.18V76.68l-.31.12Z"/></g></g><g id="Caminho_1769" data-name="Caminho 1769"><path class="cls-14" d="M151.4,74.82v1.91l-4.88,2.82V77.69Z"/></g><g id="Caminho_1770" data-name="Caminho 1770"><path class="cls-15" d="M146.52,77.69v1.87l-4.19-2.44V75.25Z"/></g></g><g id="Grupo_986" data-name="Grupo 986"><g id="Grupo_982" data-name="Grupo 982"><g id="Caminho_1771" data-name="Caminho 1771"><path class="cls-1" d="M127.89,92.57l-.31-.17V89l.31.12Z"/></g><g id="Caminho_1772" data-name="Caminho 1772"><path class="cls-2" d="M127.89,92.57l.3-.17V89l-.3.12Z"/></g></g><g id="Grupo_983" data-name="Grupo 983"><g id="Caminho_1773" data-name="Caminho 1773"><path class="cls-1" d="M123.45,90.23l-.31-.17V86.69l.31.12Z"/></g><g id="Caminho_1774" data-name="Caminho 1774"><path class="cls-2" d="M123.45,90.23l.31-.17V86.69l-.31.12Z"/></g></g><g id="Grupo_984" data-name="Grupo 984"><g id="Caminho_1775" data-name="Caminho 1775"><path class="cls-1" d="M131.84,90.32l-.31-.18V86.77l.31.12Z"/></g><g id="Caminho_1776" data-name="Caminho 1776"><path class="cls-2" d="M131.84,90.32l.31-.18V86.77l-.31.12Z"/></g></g><g id="Grupo_985" data-name="Grupo 985"><g id="Caminho_1777" data-name="Caminho 1777"><path class="cls-16" d="M132.14,85l-3.86-2-1.54.74.16,2.27,1.44,1.55,2.75-1.15Z"/></g><g id="Caminho_1778" data-name="Caminho 1778"><path class="cls-14" d="M127.88,87.36l4.26-2.42v1.83l-4.26,2.52Z"/></g><g id="Caminho_1779" data-name="Caminho 1779"><path class="cls-14" d="M129.32,87.35l-.35-3.8-1.09.48v4.81Z"/></g><g id="Caminho_1780" data-name="Caminho 1780"><path class="cls-15" d="M127.88,87.21l-4.74-2.65V81.43l4.74,2.6Z"/></g><g id="Caminho_1781" data-name="Caminho 1781"><path class="cls-16" d="M129,83.55l-1.09.48-4.74-2.6,1-.55Z"/></g><g id="Caminho_1782" data-name="Caminho 1782"><path class="cls-15" d="M127.88,87.21v2.08l-4.74-2.61V84.56Z"/></g></g></g></g><g id="Grupo_997" data-name="Grupo 997"><g id="Grupo_991" data-name="Grupo 991"><g id="Caminho_1783" data-name="Caminho 1783"><path class="cls-14" d="M124.75,89.49V86l-.86.32-.63.52.18,2.27,0,1.22.85-.5Z"/></g><g id="Caminho_1784" data-name="Caminho 1784"><path class="cls-15" d="M123.89,86.28l-.39,3.94-.94-.54-3.34-1.88.69-3.74Z"/></g><g id="Caminho_1785" data-name="Caminho 1785"><path class="cls-14" d="M119.91,84.06l.81-.32,4,2.22-.86.32Z"/></g><g id="Caminho_1786" data-name="Caminho 1786"><path class="cls-16" d="M119.87,92.36l-4.19-2.44,3.54-2.12,3.34,1.88.94.54-3,2Z"/></g><g id="Grupo_988" data-name="Grupo 988"><g id="Caminho_1787" data-name="Caminho 1787"><path class="cls-1" d="M119.87,96.94l-.31-.17V93.4l.31.12Z"/></g><g id="Caminho_1788" data-name="Caminho 1788"><path class="cls-2" d="M119.87,96.94l.3-.17V93.4l-.3.12Z"/></g></g><g id="Grupo_989" data-name="Grupo 989"><g id="Caminho_1789" data-name="Caminho 1789"><path class="cls-1" d="M116,95.17l-.31-.18V91.62l.31.12Z"/></g><g id="Caminho_1790" data-name="Caminho 1790"><path class="cls-2" d="M116,95.17l.3-.18V91.62l-.3.12Z"/></g></g><g id="Grupo_990" data-name="Grupo 990"><g id="Caminho_1791" data-name="Caminho 1791"><path class="cls-1" d="M124.44,94.9l-.3-.18V91.35l.3.12Z"/></g><g id="Caminho_1792" data-name="Caminho 1792"><path class="cls-2" d="M124.45,94.9l.3-.18V91.35l-.3.12Z"/></g></g><g id="Caminho_1793" data-name="Caminho 1793"><path class="cls-14" d="M124.75,89.49V91.4l-4.88,2.82V92.36Z"/></g><g id="Caminho_1794" data-name="Caminho 1794"><path class="cls-15" d="M119.87,92.36v1.86l-4.19-2.43V89.92Z"/></g></g><g id="Grupo_996" data-name="Grupo 996"><g id="Grupo_992" data-name="Grupo 992"><g id="Caminho_1795" data-name="Caminho 1795"><path class="cls-1" d="M101.24,107.24l-.31-.18v-3.37l.31.12Z"/></g><g id="Caminho_1796" data-name="Caminho 1796"><path class="cls-2" d="M101.24,107.24l.3-.18v-3.37l-.3.12Z"/></g></g><g id="Grupo_993" data-name="Grupo 993"><g id="Caminho_1797" data-name="Caminho 1797"><path class="cls-1" d="M96.8,104.9l-.31-.18v-3.37l.31.12Z"/></g><g id="Caminho_1798" data-name="Caminho 1798"><path class="cls-2" d="M96.8,104.9l.31-.18v-3.37l-.31.12Z"/></g></g><g id="Grupo_994" data-name="Grupo 994"><g id="Caminho_1799" data-name="Caminho 1799"><path class="cls-1" d="M105.18,105l-.3-.18v-3.37l.3.12Z"/></g><g id="Caminho_1800" data-name="Caminho 1800"><path class="cls-2" d="M105.18,105l.31-.18v-3.37l-.31.12Z"/></g></g><g id="Grupo_995" data-name="Grupo 995"><g id="Caminho_1801" data-name="Caminho 1801"><path class="cls-16" d="M105.49,99.61l-3.87-2-1.54.75.17,2.27,1.44,1.54,2.74-1.14Z"/></g><g id="Caminho_1802" data-name="Caminho 1802"><path class="cls-14" d="M101.23,102l4.26-2.42v1.83L101.23,104Z"/></g><g id="Caminho_1803" data-name="Caminho 1803"><path class="cls-14" d="M102.67,102l-.35-3.8-1.08.48v4.82Z"/></g><g id="Caminho_1804" data-name="Caminho 1804"><path class="cls-15" d="M101.23,101.88l-4.74-2.65V96.09l4.74,2.6v3.19Z"/></g><g id="Caminho_1805" data-name="Caminho 1805"><path class="cls-16" d="M102.32,98.21l-1.09.48-4.74-2.6,1-.55Z"/></g><g id="Caminho_1806" data-name="Caminho 1806"><path class="cls-15" d="M101.23,101.88V104l-4.74-2.61V99.23Z"/></g></g></g></g><g id="Grupo_1000" data-name="Grupo 1000"><g id="Grupo_998" data-name="Grupo 998"><g id="Elipse_135" data-name="Elipse 135"><ellipse class="cls-17" cx="79.78" cy="115.28" rx="2.42" ry="1.4"/></g><g id="Elipse_136" data-name="Elipse 136"><ellipse class="cls-18" cx="79.78" cy="114.95" rx="2.42" ry="1.4"/></g><g id="Linha_77" data-name="Linha 77"><path class="cls-19" d="M79.72,116a1.5,1.5,0,0,1-1.5-1.5v-5.14a1.5,1.5,0,0,1,3,0v5.14A1.5,1.5,0,0,1,79.72,116Z"/></g></g><g id="Grupo_999" data-name="Grupo 999"><g id="Elipse_137" data-name="Elipse 137"><ellipse class="cls-20" cx="79.78" cy="109.43" rx="5.22" ry="3.01"/></g><g id="Elipse_138" data-name="Elipse 138"><ellipse class="cls-21" cx="79.78" cy="108.79" rx="5.22" ry="3.01"/></g></g></g><g id="Grupo_1001" data-name="Grupo 1001"><g id="Caminho_1808" data-name="Caminho 1808"><path class="cls-1" d="M40.3,85l-2.83-1.65V52.23l2.83.94Z"/></g><g id="Caminho_1809" data-name="Caminho 1809"><path class="cls-2" d="M40.3,85l2.84-1.65V52.23l-2.84.94Z"/></g></g><g id="Grupo_1015" data-name="Grupo 1015"><g id="Grupo_1004" data-name="Grupo 1004"><g id="Grupo_1002" data-name="Grupo 1002"><g id="Elipse_139" data-name="Elipse 139"><ellipse class="cls-17" cx="30.39" cy="96.72" rx="2.42" ry="1.4"/></g><g id="Elipse_140" data-name="Elipse 140"><ellipse class="cls-18" cx="30.39" cy="96.39" rx="2.42" ry="1.4"/></g><g id="Linha_78" data-name="Linha 78"><path class="cls-19" d="M30.33,97.4a1.5,1.5,0,0,1-1.5-1.5V90.76a1.5,1.5,0,0,1,3,0V95.9A1.5,1.5,0,0,1,30.33,97.4Z"/></g></g><g id="Grupo_1003" data-name="Grupo 1003"><g id="Elipse_141" data-name="Elipse 141"><ellipse class="cls-20" cx="30.39" cy="90.86" rx="5.22" ry="3.01"/></g><g id="Elipse_142" data-name="Elipse 142"><ellipse class="cls-21" cx="30.39" cy="90.23" rx="5.22" ry="3.01"/></g></g></g><g id="Grupo_1014" data-name="Grupo 1014"><g id="Grupo_1008" data-name="Grupo 1008"><g id="Caminho_1810" data-name="Caminho 1810"><path class="cls-14" d="M45.24,87.12V83.59l-.86.32-.62.52.18,2.27-.06,1.22.85-.5Z"/></g><g id="Caminho_1811" data-name="Caminho 1811"><path class="cls-15" d="M44.38,83.91,44,87.85l-1-.54-3.34-1.88.69-3.74Z"/></g><g id="Caminho_1812" data-name="Caminho 1812"><path class="cls-14" d="M40.4,81.69l.82-.32,4,2.22-.86.32Z"/></g><g id="Caminho_1813" data-name="Caminho 1813"><path class="cls-16" d="M40.36,90l-4.19-2.44,3.54-2.12,3.34,1.88.94.54-3,2Z"/></g><g id="Grupo_1005" data-name="Grupo 1005"><g id="Caminho_1814" data-name="Caminho 1814"><path class="cls-1" d="M40.36,94.58l-.31-.18V91l.31.12Z"/></g><g id="Caminho_1815" data-name="Caminho 1815"><path class="cls-2" d="M40.36,94.58l.3-.18V91l-.3.12Z"/></g></g><g id="Grupo_1006" data-name="Grupo 1006"><g id="Caminho_1816" data-name="Caminho 1816"><path class="cls-1" d="M36.48,92.8l-.31-.17V89.26l.31.12Z"/></g><g id="Caminho_1817" data-name="Caminho 1817"><path class="cls-2" d="M36.48,92.8l.31-.17V89.26l-.31.12Z"/></g></g><g id="Grupo_1007" data-name="Grupo 1007"><g id="Caminho_1818" data-name="Caminho 1818"><path class="cls-1" d="M44.93,92.53l-.3-.18V89l.31.12Z"/></g><g id="Caminho_1819" data-name="Caminho 1819"><path class="cls-2" d="M44.94,92.53l.3-.18V89l-.3.12Z"/></g></g><g id="Caminho_1820" data-name="Caminho 1820"><path class="cls-14" d="M45.24,87.12V89l-4.88,2.82V90Z"/></g><g id="Caminho_1821" data-name="Caminho 1821"><path class="cls-15" d="M40.36,90v1.86l-4.19-2.43V87.55Z"/></g></g><g id="Grupo_1013" data-name="Grupo 1013"><g id="Grupo_1009" data-name="Grupo 1009"><g id="Caminho_1822" data-name="Caminho 1822"><path class="cls-1" d="M21.73,104.87l-.31-.18v-3.37l.31.13Z"/></g><g id="Caminho_1823" data-name="Caminho 1823"><path class="cls-2" d="M21.73,104.87l.3-.18v-3.37l-.3.13Z"/></g></g><g id="Grupo_1010" data-name="Grupo 1010"><g id="Caminho_1824" data-name="Caminho 1824"><path class="cls-1" d="M17.29,102.53l-.31-.17V99l.31.12Z"/></g><g id="Caminho_1825" data-name="Caminho 1825"><path class="cls-2" d="M17.29,102.53l.31-.17V99l-.31.12Z"/></g></g><g id="Grupo_1011" data-name="Grupo 1011"><g id="Caminho_1826" data-name="Caminho 1826"><path class="cls-1" d="M25.67,102.61l-.3-.17V99.07l.3.12Z"/></g><g id="Caminho_1827" data-name="Caminho 1827"><path class="cls-2" d="M25.68,102.61l.3-.17V99.07l-.3.12Z"/></g></g><g id="Grupo_1012" data-name="Grupo 1012"><g id="Caminho_1828" data-name="Caminho 1828"><path class="cls-16" d="M26,97.24l-3.86-2-1.55.75.17,2.27,1.44,1.55,2.74-1.15Z"/></g><g id="Caminho_1829" data-name="Caminho 1829"><path class="cls-14" d="M21.72,99.66,26,97.24v1.83l-4.26,2.52Z"/></g><g id="Caminho_1830" data-name="Caminho 1830"><path class="cls-14" d="M23.16,99.65l-.35-3.8-1.09.47v4.82Z"/></g><g id="Caminho_1831" data-name="Caminho 1831"><path class="cls-15" d="M21.72,99.51,17,96.86V93.72l4.74,2.6v3.19Z"/></g><g id="Caminho_1832" data-name="Caminho 1832"><path class="cls-16" d="M22.81,95.85l-1.09.48L17,93.73l1-.55Z"/></g><g id="Caminho_1833" data-name="Caminho 1833"><path class="cls-15" d="M21.72,99.51v2.08L17,99V96.86Z"/></g></g></g></g></g><g id="Grupo_1016" data-name="Grupo 1016"><g id="Caminho_1834" data-name="Caminho 1834"><path class="cls-3" d="M64.35,142l-2.84-1.65V109.2l2.84,1.12Z"/></g><g id="Caminho_1835" data-name="Caminho 1835"><path class="cls-4" d="M64.34,142l2.84-1.65V109.2l-2.84,1.12Z"/></g></g><g id="Grupo_1017" data-name="Grupo 1017"><g id="Caminho_1836" data-name="Caminho 1836"><path class="cls-3" d="M2.83,106.48,0,104.83V73.67l2.83,1Z"/></g><g id="Caminho_1837" data-name="Caminho 1837"><path class="cls-2" d="M2.83,106.48l2.83-1.65V73.67l-2.83,1Z"/></g></g><g id="Grupo_1018" data-name="Grupo 1018"><g id="Caminho_1838" data-name="Caminho 1838"><path class="cls-1" d="M71.23,66.93,68.4,65.28V34.12l2.83.94Z"/></g><g id="Caminho_1839" data-name="Caminho 1839"><path class="cls-2" d="M71.23,66.93l2.84-1.65V34.12l-2.84.94Z"/></g></g><g id="Grupo_1032" data-name="Grupo 1032"><g id="Grupo_1021" data-name="Grupo 1021"><g id="Grupo_1019" data-name="Grupo 1019"><g id="Elipse_143" data-name="Elipse 143"><ellipse class="cls-17" cx="60.79" cy="79.8" rx="2.42" ry="1.4"/></g><g id="Elipse_144" data-name="Elipse 144"><ellipse class="cls-18" cx="60.79" cy="79.47" rx="2.42" ry="1.4"/></g><g id="Linha_79" data-name="Linha 79"><path class="cls-19" d="M60.73,80.48a1.5,1.5,0,0,1-1.5-1.5V73.84a1.5,1.5,0,0,1,3,0V79A1.5,1.5,0,0,1,60.73,80.48Z"/></g></g><g id="Grupo_1020" data-name="Grupo 1020"><g id="Elipse_145" data-name="Elipse 145"><ellipse class="cls-20" cx="60.79" cy="73.95" rx="5.22" ry="3.01"/></g><g id="Elipse_146" data-name="Elipse 146"><ellipse class="cls-21" cx="60.79" cy="73.31" rx="5.22" ry="3.01"/></g></g></g><g id="Grupo_1031" data-name="Grupo 1031"><g id="Grupo_1025" data-name="Grupo 1025"><g id="Caminho_1840" data-name="Caminho 1840"><path class="cls-14" d="M75.64,70.21V66.67l-.86.33-.63.52.18,2.27L74.27,71l.85-.5Z"/></g><g id="Caminho_1841" data-name="Caminho 1841"><path class="cls-15" d="M74.78,67l-.39,3.94-.94-.54-3.34-1.89.69-3.73Z"/></g><g id="Caminho_1842" data-name="Caminho 1842"><path class="cls-14" d="M70.79,64.78l.82-.32,4,2.21-.86.33Z"/></g><g id="Caminho_1843" data-name="Caminho 1843"><path class="cls-16" d="M70.76,73.08l-4.19-2.44,3.54-2.13,3.34,1.89.94.54-3,2Z"/></g><g id="Grupo_1022" data-name="Grupo 1022"><g id="Caminho_1844" data-name="Caminho 1844"><path class="cls-1" d="M70.76,77.66l-.31-.18V74.12l.31.12Z"/></g><g id="Caminho_1845" data-name="Caminho 1845"><path class="cls-2" d="M70.75,77.66l.31-.18V74.12l-.31.12Z"/></g></g><g id="Grupo_1023" data-name="Grupo 1023"><g id="Caminho_1846" data-name="Caminho 1846"><path class="cls-1" d="M66.88,75.89l-.31-.18V72.34l.31.12Z"/></g><g id="Caminho_1847" data-name="Caminho 1847"><path class="cls-2" d="M66.88,75.89l.3-.18V72.34l-.3.12Z"/></g></g><g id="Grupo_1024" data-name="Grupo 1024"><g id="Caminho_1848" data-name="Caminho 1848"><path class="cls-1" d="M75.33,75.61,75,75.44V72.07l.31.12Z"/></g><g id="Caminho_1849" data-name="Caminho 1849"><path class="cls-2" d="M75.33,75.61l.31-.17V72.07l-.31.12Z"/></g></g><g id="Caminho_1850" data-name="Caminho 1850"><path class="cls-14" d="M75.64,70.21v1.91l-4.88,2.82V73.07Z"/></g><g id="Caminho_1851" data-name="Caminho 1851"><path class="cls-15" d="M70.76,73.08v1.86l-4.19-2.43V70.64Z"/></g></g><g id="Grupo_1030" data-name="Grupo 1030"><g id="Grupo_1026" data-name="Grupo 1026"><g id="Caminho_1852" data-name="Caminho 1852"><path class="cls-1" d="M52.12,88l-.3-.18V84.41l.3.12Z"/></g><g id="Caminho_1853" data-name="Caminho 1853"><path class="cls-2" d="M52.12,88l.31-.18V84.41l-.31.12Z"/></g></g><g id="Grupo_1027" data-name="Grupo 1027"><g id="Caminho_1854" data-name="Caminho 1854"><path class="cls-1" d="M47.69,85.62l-.31-.18V82.07l.31.12Z"/></g><g id="Caminho_1855" data-name="Caminho 1855"><path class="cls-2" d="M47.69,85.62l.3-.18V82.07l-.3.12Z"/></g></g><g id="Grupo_1028" data-name="Grupo 1028"><g id="Caminho_1856" data-name="Caminho 1856"><path class="cls-1" d="M56.07,85.7l-.3-.18V82.15l.3.12Z"/></g><g id="Caminho_1857" data-name="Caminho 1857"><path class="cls-2" d="M56.07,85.7l.31-.18V82.15l-.31.12Z"/></g></g><g id="Grupo_1029" data-name="Grupo 1029"><g id="Caminho_1858" data-name="Caminho 1858"><path class="cls-16" d="M56.38,80.33l-3.86-2L51,79l.17,2.27,1.44,1.55,2.74-1.14Z"/></g><g id="Caminho_1859" data-name="Caminho 1859"><path class="cls-14" d="M52.12,82.74l4.26-2.42v1.83l-4.26,2.52Z"/></g><g id="Caminho_1860" data-name="Caminho 1860"><path class="cls-14" d="M53.55,82.73l-.34-3.8-1.09.48v4.82Z"/></g><g id="Caminho_1861" data-name="Caminho 1861"><path class="cls-15" d="M52.12,82.6,47.38,80V76.81l4.74,2.6V82.6Z"/></g><g id="Caminho_1862" data-name="Caminho 1862"><path class="cls-16" d="M53.21,78.93l-1.09.48-4.74-2.6,1-.55Z"/></g><g id="Caminho_1863" data-name="Caminho 1863"><path class="cls-15" d="M52.12,82.6v2.07l-4.74-2.6V79.94Z"/></g></g></g></g></g><g id="Grupo_1046" data-name="Grupo 1046"><g id="Grupo_1035" data-name="Grupo 1035"><g id="Grupo_1033" data-name="Grupo 1033"><g id="Elipse_147" data-name="Elipse 147"><ellipse class="cls-17" cx="91.68" cy="60.92" rx="2.42" ry="1.4"/></g><g id="Elipse_148" data-name="Elipse 148"><ellipse class="cls-18" cx="91.68" cy="60.59" rx="2.42" ry="1.4"/></g><g id="Linha_80" data-name="Linha 80"><path class="cls-19" d="M91.62,61.6a1.5,1.5,0,0,1-1.5-1.5V55a1.5,1.5,0,0,1,3,0V60.1A1.5,1.5,0,0,1,91.62,61.6Z"/></g></g><g id="Grupo_1034" data-name="Grupo 1034"><g id="Elipse_149" data-name="Elipse 149"><ellipse class="cls-20" cx="91.68" cy="55.06" rx="5.22" ry="3.01"/></g><g id="Elipse_150" data-name="Elipse 150"><ellipse class="cls-21" cx="91.68" cy="54.43" rx="5.22" ry="3.01"/></g></g></g><g id="Grupo_1045" data-name="Grupo 1045"><g id="Grupo_1039" data-name="Grupo 1039"><g id="Caminho_1864" data-name="Caminho 1864"><path class="cls-14" d="M106.53,51.33V47.79l-.86.33-.62.52.17,2.27,0,1.22.85-.5Z"/></g><g id="Caminho_1865" data-name="Caminho 1865"><path class="cls-15" d="M105.67,48.12l-.39,3.94-.94-.55L101,49.63l.69-3.73Z"/></g><g id="Caminho_1866" data-name="Caminho 1866"><path class="cls-14" d="M101.68,45.9l.82-.32,4,2.21-.86.33Z"/></g><g id="Caminho_1867" data-name="Caminho 1867"><path class="cls-16" d="M101.65,54.2l-4.19-2.44L101,49.64l3.34,1.88.94.54-3,2Z"/></g><g id="Grupo_1036" data-name="Grupo 1036"><g id="Caminho_1868" data-name="Caminho 1868"><path class="cls-1" d="M101.65,58.78l-.31-.18V55.23l.31.12Z"/></g><g id="Caminho_1869" data-name="Caminho 1869"><path class="cls-2" d="M101.65,58.78l.3-.18V55.23l-.3.12Z"/></g></g><g id="Grupo_1037" data-name="Grupo 1037"><g id="Caminho_1870" data-name="Caminho 1870"><path class="cls-1" d="M97.77,57l-.31-.18V53.46l.31.12Z"/></g><g id="Caminho_1871" data-name="Caminho 1871"><path class="cls-2" d="M97.77,57l.3-.18V53.46l-.3.12Z"/></g></g><g id="Grupo_1038" data-name="Grupo 1038"><g id="Caminho_1872" data-name="Caminho 1872"><path class="cls-1" d="M106.23,56.73l-.31-.17V53.19l.31.12Z"/></g><g id="Caminho_1873" data-name="Caminho 1873"><path class="cls-2" d="M106.23,56.73l.3-.17V53.19l-.3.12Z"/></g></g><g id="Caminho_1874" data-name="Caminho 1874"><path class="cls-14" d="M106.53,51.33v1.91l-4.88,2.82V54.19Z"/></g><g id="Caminho_1875" data-name="Caminho 1875"><path class="cls-15" d="M101.65,54.2v1.86l-4.19-2.43V51.76Z"/></g></g><g id="Grupo_1044" data-name="Grupo 1044"><g id="Grupo_1040" data-name="Grupo 1040"><g id="Caminho_1876" data-name="Caminho 1876"><path class="cls-1" d="M83,69.08l-.31-.18V65.53l.31.12Z"/></g><g id="Caminho_1877" data-name="Caminho 1877"><path class="cls-2" d="M83,69.08l.3-.18V65.53l-.3.12Z"/></g></g><g id="Grupo_1041" data-name="Grupo 1041"><g id="Caminho_1878" data-name="Caminho 1878"><path class="cls-1" d="M78.58,66.74l-.31-.18V63.19l.31.12Z"/></g><g id="Caminho_1879" data-name="Caminho 1879"><path class="cls-2" d="M78.58,66.74l.3-.18V63.19l-.3.12Z"/></g></g><g id="Grupo_1042" data-name="Grupo 1042"><g id="Caminho_1880" data-name="Caminho 1880"><path class="cls-1" d="M87,66.82l-.31-.18V63.27l.31.12Z"/></g><g id="Caminho_1881" data-name="Caminho 1881"><path class="cls-2" d="M87,66.82l.3-.18V63.27l-.3.12Z"/></g></g><g id="Grupo_1043" data-name="Grupo 1043"><g id="Caminho_1882" data-name="Caminho 1882"><path class="cls-16" d="M87.27,61.45,83.41,59.4l-1.55.74L82,62.41,83.47,64l2.74-1.15Z"/></g><g id="Caminho_1883" data-name="Caminho 1883"><path class="cls-14" d="M83,63.87l4.26-2.42v1.83L83,65.79Z"/></g><g id="Caminho_1884" data-name="Caminho 1884"><path class="cls-14" d="M84.44,63.85l-.34-3.8L83,60.53v4.81Z"/></g><g id="Caminho_1885" data-name="Caminho 1885"><path class="cls-15" d="M83,63.71l-4.74-2.65V57.92L83,60.52Z"/></g><g id="Caminho_1886" data-name="Caminho 1886"><path class="cls-16" d="M84.1,60.05,83,60.53l-4.74-2.6,1-.55Z"/></g><g id="Caminho_1887" data-name="Caminho 1887"><path class="cls-15" d="M83,63.72v2.07l-4.74-2.6V61.06Z"/></g></g></g></g></g><g id="Grupo_1049" data-name="Grupo 1049"><g id="Grupo_1047" data-name="Grupo 1047"><g id="Elipse_151" data-name="Elipse 151"><ellipse class="cls-17" cx="137.27" cy="86" rx="2.42" ry="1.4"/></g><g id="Elipse_152" data-name="Elipse 152"><ellipse class="cls-18" cx="137.27" cy="85.68" rx="2.42" ry="1.4"/></g><g id="Linha_81" data-name="Linha 81"><path class="cls-19" d="M137.21,86.69a1.51,1.51,0,0,1-1.5-1.5V80a1.5,1.5,0,1,1,3,0v5.15A1.5,1.5,0,0,1,137.21,86.69Z"/></g></g><g id="Grupo_1048" data-name="Grupo 1048"><g id="Elipse_153" data-name="Elipse 153"><ellipse class="cls-20" cx="137.27" cy="80.15" rx="5.22" ry="3.01"/></g><g id="Elipse_154" data-name="Elipse 154"><ellipse class="cls-21" cx="137.27" cy="79.51" rx="5.22" ry="3.01"/></g></g></g><g id="Grupo_1050" data-name="Grupo 1050"><g id="Caminho_1888" data-name="Caminho 1888"><path class="cls-1" d="M97.91,122.72l-2.84-1.65V89.91l2.84.94Z"/></g><g id="Caminho_1889" data-name="Caminho 1889"><path class="cls-4" d="M97.91,122.72l2.83-1.65,0-31.36-2.87,1.14Z"/></g></g><g id="Grupo_1051" data-name="Grupo 1051"><g id="Caminho_1890" data-name="Caminho 1890"><path class="cls-1" d="M135,101.2l-2.84-1.65V68.39l2.84.94Z"/></g><g id="Caminho_1891" data-name="Caminho 1891"><path class="cls-4" d="M135,101.2l2.84-1.65V68.39l-2.84.94Z"/></g></g><g id="Grupo_1052" data-name="Grupo 1052"><g id="Caminho_1892" data-name="Caminho 1892"><path class="cls-1" d="M162.59,85l-2.83-1.65V55.3l2.83-1.54Z"/></g><g id="Caminho_1893" data-name="Caminho 1893"><path class="cls-4" d="M162.6,85l2.83-1.65V52.23l-2.83,1.63Z"/></g></g><g id="Caminho_1894" data-name="Caminho 1894"><path class="cls-16" d="M137.27,67.11l-101,58.64L16.9,114.59,117,56.19Z"/></g><g id="Caminho_1895" data-name="Caminho 1895"><path class="cls-4" d="M67.18,109.2,2.83,72.1,0,73.68l64.34,37.16Z"/></g><g id="Grupo_1055" data-name="Grupo 1055"><g id="Grupo_1053" data-name="Grupo 1053"><g id="Elipse_155" data-name="Elipse 155"><ellipse class="cls-17" cx="109.49" cy="98.33" rx="2.42" ry="1.4"/></g><g id="Elipse_156" data-name="Elipse 156"><ellipse class="cls-18" cx="109.49" cy="98" rx="2.42" ry="1.4"/></g><g id="Linha_82" data-name="Linha 82"><path class="cls-19" d="M109.43,99a1.5,1.5,0,0,1-1.5-1.5V92.37a1.5,1.5,0,0,1,3,0v5.14A1.5,1.5,0,0,1,109.43,99Z"/></g></g><g id="Grupo_1054" data-name="Grupo 1054"><g id="Elipse_157" data-name="Elipse 157"><ellipse class="cls-20" cx="109.49" cy="92.48" rx="5.22" ry="3.01"/></g><g id="Elipse_158" data-name="Elipse 158"><ellipse class="cls-21" cx="109.49" cy="91.84" rx="5.22" ry="3.01"/></g></g></g><g id="Caminho_1896" data-name="Caminho 1896"><path class="cls-3" d="M0,73.67v2.2L64.34,113v-2.13Z"/></g><g id="Grupo_1056" data-name="Grupo 1056"><g id="Caminho_1897" data-name="Caminho 1897" class="cls-22"><path class="cls-2" d="M164.9,52.52l.5-.29c-1.62-13.28-6.76-26.65-15.72-36.72A48.5,48.5,0,0,0,130.42,2.28c-8.7-3.24-14.9-2.66-19.27-.53a18.73,18.73,0,0,0-1.73.88l-.51.29-.5.29-.51.28-.51.29-.51.28c-.16.1-.33.2-.51.29l-.5.29c-.17.09-.35.18-.51.28-25,13.47-49.45,27.82-74.16,41.72L19.13,53.43c-4.69,2.64-11.77,5.3-14.88,9.79A20.43,20.43,0,0,0,.5,73.38c0,.56,5.77,3.33,6.28,3.63l15.28,8.82,34.55,20c2.62,1.51,5.24,3.08,7.88,4.54-.1-.07.1.36,0,.26,2.7-.74,5-2.77,7.43-4.17,3.1-1.81,6.22-3.61,9.33-5.41L100,90.18,137.34,68.5l1.87-1.08Z"/></g><g id="Caminho_1898" data-name="Caminho 1898" class="cls-22"><path class="cls-23" d="M0,73.67S1.42,49.33,29.25,60.89c32.61,13.54,35.09,50,35.09,50Z"/></g></g><g id="Caminho_1899" data-name="Caminho 1899" class="cls-22"><path class="cls-2" d="M37.47,52.23l2.83-1.12,2.84,1.12-2.84.94Z"/></g><g id="Caminho_1900" data-name="Caminho 1900" class="cls-22"><path class="cls-2" d="M68.4,34.12,71.23,33l2.84,1.11-2.84,1Z"/></g></g><g id="Grupo_1060" data-name="Grupo 1060"><g id="Caminho_1901" data-name="Caminho 1901"><path class="cls-6" d="M6.28,104.78,9,105.3v-3l-2.67,1.51Z"/></g><g id="Caminho_1902" data-name="Caminho 1902"><path class="cls-7" d="M11.33,105.77l-2.41-.47v-3l2.6,1.47Z"/></g><g id="Caminho_1903" data-name="Caminho 1903"><path class="cls-8" d="M11.22,103.67l-.78.08-1.6.09-2.21-.17,2.3,1.3Z"/></g><g id="Caminho_1904" data-name="Caminho 1904"><path class="cls-9" d="M6.25,103.68h.37l2.3-1.33,2.3,1.33h.38l-2.67-1.55Z"/></g><g id="Grupo_1059" data-name="Grupo 1059"><g id="Caminho_1905" data-name="Caminho 1905"><path class="cls-10" d="M9.2,106.3a1.32,1.32,0,0,1-.34,0,1.5,1.5,0,0,1-1.12-1.81,5.4,5.4,0,0,1,.52-1.33,7,7,0,0,1,3.12-2.77,1.5,1.5,0,1,1,1.22,2.74,3.89,3.89,0,0,0-1.75,1.54,2.63,2.63,0,0,0-.19.51A1.5,1.5,0,0,1,9.2,106.3Z"/></g><g id="Caminho_1906" data-name="Caminho 1906"><path class="cls-11" d="M9.1,106.68a1.5,1.5,0,0,1-1.49-1.34,5.91,5.91,0,0,0-2.87-4.48,1.5,1.5,0,1,1,1.53-2.59A9,9,0,0,1,10.6,105a1.52,1.52,0,0,1-1.34,1.65Z"/></g><g id="Caminho_1907" data-name="Caminho 1907"><path class="cls-10" d="M9.28,107.11a1.5,1.5,0,0,1-1.49-1.33,11.52,11.52,0,0,1,1.44-7,.7.7,0,0,1,.06-.09,7.09,7.09,0,0,0,.65-1.29,1.5,1.5,0,0,1,2.81,1,9.43,9.43,0,0,1-.93,1.85,8.6,8.6,0,0,0-1.05,5.19,1.49,1.49,0,0,1-1.32,1.65Z"/></g><g id="Caminho_1908" data-name="Caminho 1908"><path class="cls-10" d="M9,106.52a1.51,1.51,0,0,1-1.5-1.36l-.33-3.51A24.59,24.59,0,0,0,6.8,98.9a1.5,1.5,0,0,1,2.94-.58,26.51,26.51,0,0,1,.42,3.08l.33,3.48a1.49,1.49,0,0,1-1.35,1.63Z"/></g><g id="Grupo_1058" data-name="Grupo 1058"><g id="Caminho_1909" data-name="Caminho 1909"><path class="cls-12" d="M8.63,106.4a1.49,1.49,0,0,1-1.08-.46,8.48,8.48,0,0,0-3.14-2.07,1.5,1.5,0,1,1,1-2.81,11.67,11.67,0,0,1,4.26,2.8A1.5,1.5,0,0,1,9.67,106,1.48,1.48,0,0,1,8.63,106.4Z"/></g><g id="Caminho_1910" data-name="Caminho 1910"><path class="cls-12" d="M8.65,105.4A1.51,1.51,0,0,1,7.59,105a7,7,0,0,0-3.21-1.82,1.5,1.5,0,0,1,.74-2.91,10,10,0,0,1,4.59,2.6,1.51,1.51,0,0,1,0,2.13A1.49,1.49,0,0,1,8.65,105.4Z"/></g><g id="Caminho_1911" data-name="Caminho 1911"><path class="cls-13" d="M8,104.42a1.48,1.48,0,0,1-1.31-.78,7,7,0,0,0-1.37-1.75,1.5,1.5,0,1,1,2-2.21,9.69,9.69,0,0,1,2,2.53,1.49,1.49,0,0,1-.6,2A1.54,1.54,0,0,1,8,104.42Z"/></g><g id="Caminho_1912" data-name="Caminho 1912"><path class="cls-12" d="M9,104.44H8.74a1.5,1.5,0,0,1-1.27-1.7,29.59,29.59,0,0,1,1-4.27,1.5,1.5,0,0,1,2.87.86,26.3,26.3,0,0,0-.85,3.84A1.5,1.5,0,0,1,9,104.44Z"/></g><g id="Caminho_1913" data-name="Caminho 1913"><path class="cls-12" d="M9.2,106.09a1.47,1.47,0,0,1-.92-.32,1.49,1.49,0,0,1-.26-2.1,7.65,7.65,0,0,1,5.53-3,1.5,1.5,0,1,1,.21,3,4.66,4.66,0,0,0-3.37,1.8A1.49,1.49,0,0,1,9.2,106.09Z"/></g><g id="Caminho_1914" data-name="Caminho 1914"><path class="cls-12" d="M8.76,105.36a1.49,1.49,0,0,1-1.41-1c-.75-2.05-1.56-4.11-2.42-6.12a1.5,1.5,0,0,1,2.76-1.18c.88,2.06,1.71,4.17,2.48,6.27a1.5,1.5,0,0,1-1.41,2Z"/></g><g id="Caminho_1915" data-name="Caminho 1915"><path class="cls-13" d="M9.2,106.73a1.51,1.51,0,0,1-1.46-1.18,47.09,47.09,0,0,1-.41-4.81c0-1.59,0-3.23.07-4.89a1.5,1.5,0,1,1,3,.2c-.1,1.54-.08,3.12-.06,4.66,0,.76.22,3.67.34,4.19a1.5,1.5,0,0,1-1.14,1.79A1.86,1.86,0,0,1,9.2,106.73Z"/></g></g><g id="Caminho_1916" data-name="Caminho 1916"><path class="cls-10" d="M8.59,106.22a1.5,1.5,0,0,1-1.33-.81A14.8,14.8,0,0,0,4.81,102,1.5,1.5,0,1,1,7,99.91,17.79,17.79,0,0,1,9.92,104a1.5,1.5,0,0,1-.64,2A1.44,1.44,0,0,1,8.59,106.22Z"/></g><g id="Caminho_1917" data-name="Caminho 1917"><path class="cls-11" d="M9.1,106.69l-.29,0a1.5,1.5,0,0,1-1.18-1.76c.56-2.84,1.67-4.78,3.32-5.76a1.5,1.5,0,1,1,1.54,2.57c-.5.3-1.41,1.19-1.92,3.76A1.5,1.5,0,0,1,9.1,106.69Z"/></g></g><g id="Caminho_1918" data-name="Caminho 1918"><path class="cls-7" d="M8.92,108.24l-2.67-1.55v-3l2.67,1.5Z"/></g><g id="Caminho_1919" data-name="Caminho 1919"><path class="cls-6" d="M8.92,108.24l2.67-1.55v-3l-2.67,1.5Z"/></g><g id="Caminho_1920" data-name="Caminho 1920"><path class="cls-9" d="M8.92,105l-2.3-1.3H6.24l2.67,1.51,2.67-1.51h-.37Z"/></g></g></g><g id="Grupo_1062" data-name="Grupo 1062"><g id="Caminho_1921" data-name="Caminho 1921"><path class="cls-24" d="M95.27,70.07C88.77,55.14,78,44.29,64,38.69c-9.75-3.92-17.75-4-23.79-.4a18.66,18.66,0,0,0-6.75,7.27A40.45,40.45,0,0,1,44.67,42a28.49,28.49,0,0,1,13.81.87l.84.06-.38.08c.94.31,1.92.66,2.91,1.06,12.62,5.07,22,14.53,28,28.13a69.61,69.61,0,0,1,5,17.19,31.77,31.77,0,0,1,.21,3.65h0a4.35,4.35,0,0,0,5.44-2.59l.27-.72A73.94,73.94,0,0,0,95.27,70.07Z"/></g></g><g id="Grupo_1063" data-name="Grupo 1063"><g id="Caminho_1922" data-name="Caminho 1922"><path class="cls-24" d="M132.31,48.63C125.81,33.7,115,22.85,101.07,17.25c-9.75-3.92-17.76-4.05-23.8-.41a18.73,18.73,0,0,0-6.74,7.28,40.63,40.63,0,0,1,11.18-3.56,28.61,28.61,0,0,1,13.81.88l.85.06-.38.08c.94.31,1.91.66,2.91,1.06,12.61,5.07,22,14.53,28,28.13a69.61,69.61,0,0,1,5,17.19,31.77,31.77,0,0,1,.21,3.65h0A4.35,4.35,0,0,0,137.55,69l.28-.72A74,74,0,0,0,132.31,48.63Z"/></g></g><g id="Grupo_1067" data-name="Grupo 1067"><g id="Grupo_1064" data-name="Grupo 1064"><g id="Caminho_1923" data-name="Caminho 1923"><path class="cls-15" d="M32.82,132.56,13.54,121.42v-2.23l19.29,11.13Z"/></g><g id="Caminho_1924" data-name="Caminho 1924"><path class="cls-2" d="M32.82,130.32v2.24l3.42-2v-2.24Z"/></g><g id="Caminho_1925" data-name="Caminho 1925"><path class="cls-16" d="M36.23,128.35l-3.41,2L13.54,119.19l3.41-2Z"/></g></g><g id="Grupo_1065" data-name="Grupo 1065"><g id="Caminho_1926" data-name="Caminho 1926"><path class="cls-15" d="M29.41,136.77,10.12,125.63V123.4l19.29,11.13Z"/></g><g id="Caminho_1927" data-name="Caminho 1927"><path class="cls-2" d="M29.41,134.53v2.24l3.41-2v-2.24Z"/></g><g id="Caminho_1928" data-name="Caminho 1928"><path class="cls-16" d="M32.82,132.56l-3.41,2L10.13,123.4l3.4-2Z"/></g></g><g id="Grupo_1066" data-name="Grupo 1066"><g id="Caminho_1929" data-name="Caminho 1929"><path class="cls-15" d="M26,140.94,6.71,129.8v-2.23L26,138.7Z"/></g><g id="Caminho_1930" data-name="Caminho 1930"><path class="cls-2" d="M26,138.7v2.24l3.42-2v-2.24Z"/></g><g id="Caminho_1931" data-name="Caminho 1931"><path class="cls-16" d="M29.4,136.73l-3.4,2L6.71,127.57l3.41-2Z"/></g></g><g id="Caminho_1932" data-name="Caminho 1932"><path class="cls-2" d="M26,140.94l10.25-5.87v-5.94l-2.77,2.45-.65,1-2.51,3.21s-.9.93-.9,1-1.71,2.4-1.71,2.4Z"/></g></g><g id="Caminho_1933" data-name="Caminho 1933"><path class="cls-15" d="M16.9,114.59v2.77l19.33,11.22v-2.83Z"/></g></g></g></g></svg>