<svg xmlns="http://www.w3.org/2000/svg" viewBox="0 0 160.44 136.82"><defs><style>.cls-1{fill:#c1c1c1;}.cls-2{fill:#999;}.cls-3{fill:#d8d8d8;}.cls-4{fill:#c6c6c6;}.cls-5{fill:#a0a0a0;}.cls-6{fill:#f2f2f2;}.cls-7{fill:#986647;}.cls-8{fill:#ad7455;}.cls-9{fill:none;}.cls-10{fill:#b38162;}.cls-11{fill:#96dd5e;}.cls-12{fill:#519e2e;}.cls-13{fill:#83af69;}.cls-14{fill:#51bc24;}.cls-15{fill:#a241ef;}.cls-16{fill:#631c9b;}.cls-17{fill:#9113d3;}.cls-18{fill:#eaeaea;}.cls-19{fill:#4c4c4c;}.cls-20{fill:#ccc;}.cls-21{fill:#1c1c1c;}.cls-22{fill:#fff;}.cls-23{fill:#b5b5b5;}.cls-24{fill:#ededed;}.cls-25{fill:#ddd;}</style></defs><g id="Camada_2" data-name="Camada 2"><g id="Camada_1-2" data-name="Camada 1"><g id="rooms"><g id="Grupo_1315" data-name="Grupo 1315"><g id="Caminho_2398" data-name="Caminho 2398"><path class="cls-1" d="M157.58,92.45,79.64,136.82l-77-44.38v-3.3L80.13,50.5l77.45,38.64Z"/></g><g id="Caminho_2399" data-name="Caminho 2399"><path class="cls-2" d="M80.13,126.67l-.49,7.16v3l77.94-44.38v-3.3Z"/></g><g id="Caminho_2400" data-name="Caminho 2400"><path class="cls-3" d="M157.58,89.15,79.64,133.84l-77-44.45L79.64,45Z"/></g><g id="Caminho_2401" data-name="Caminho 2401"><path class="cls-4" d="M2.67,89.39V47.7L80.07,3.33V45Z"/></g><g id="Caminho_2402" data-name="Caminho 2402"><path class="cls-5" d="M15.16,82.1V52.25L28,45v29.8Z"/></g><g id="Caminho_2403" data-name="Caminho 2403"><path class="cls-6" d="M157.58,89.2V47.52L80.18,3.15l-.18,42Z"/></g><g id="Grupo_1273" data-name="Grupo 1273"><g id="Caminho_2404" data-name="Caminho 2404"><path class="cls-7" d="M75.61,42.4l4.23.83V38.45l-4.23,2.39Z"/></g><g id="Caminho_2405" data-name="Caminho 2405"><path class="cls-8" d="M83.62,44l-3.83-.74V38.45l4.12,2.33Z"/></g><g id="Caminho_2406" data-name="Caminho 2406"><path class="cls-9" d="M83.43,40.65l-1.23.12-2.53.15-3.5-.27L79.8,42.7Z"/></g><g id="Caminho_2407" data-name="Caminho 2407"><path class="cls-10" d="M75.57,40.66h.59l3.63-2.1,3.64,2.1H84l-4.23-2.44Z"/></g><g id="Grupo_1272" data-name="Grupo 1272"><g id="Caminho_2408" data-name="Caminho 2408"><path class="cls-11" d="M79.79,44l-.08,0a.37.37,0,0,1-.28-.45,9.89,9.89,0,0,1,1-2.52,14.29,14.29,0,0,1,6.32-5.55.37.37,0,0,1,.49.19.38.38,0,0,1-.19.5,13.38,13.38,0,0,0-6,5.24,8.78,8.78,0,0,0-.89,2.32A.38.38,0,0,1,79.79,44Z"/></g><g id="Caminho_2409" data-name="Caminho 2409"><path class="cls-12" d="M80.34,45a.38.38,0,0,1-.37-.34,18.51,18.51,0,0,0-8.94-14,.37.37,0,0,1-.13-.51.37.37,0,0,1,.51-.14,19.3,19.3,0,0,1,9.31,14.53.37.37,0,0,1-.34.41Z"/></g><g id="Caminho_2410" data-name="Caminho 2410"><path class="cls-11" d="M80.5,49.24a.38.38,0,0,1-.37-.33c-.61-5.33.46-14.1,3.24-19a20.26,20.26,0,0,0,2-4,.38.38,0,0,1,.48-.22.36.36,0,0,1,.22.48A20,20,0,0,1,84,30.33c-2.61,4.57-3.73,13.26-3.13,18.5a.38.38,0,0,1-.33.41Z"/></g><g id="Caminho_2411" data-name="Caminho 2411"><path class="cls-11" d="M79.79,44.55a.37.37,0,0,1-.37-.34l-.85-8.89a62,62,0,0,0-1-7.31.38.38,0,0,1,.3-.44.37.37,0,0,1,.44.3,63.4,63.4,0,0,1,1,7.39l.85,8.88a.37.37,0,0,1-.34.41Z"/></g><g id="Caminho_2412" data-name="Caminho 2412"><path class="cls-13" d="M80.16,43.23a.4.4,0,0,1-.33-.2c-1.78-3.39-5.12-5.87-7.8-7.86a.37.37,0,0,1-.08-.52.38.38,0,0,1,.53-.08c2.74,2,6.15,4.57,8,8.11a.36.36,0,0,1-.15.5A.41.41,0,0,1,80.16,43.23Z"/></g><g id="Caminho_2413" data-name="Caminho 2413"><path class="cls-13" d="M79.82,42a.36.36,0,0,1-.27-.11,21.19,21.19,0,0,0-9.72-5.5.38.38,0,0,1-.28-.45A.38.38,0,0,1,70,35.7a21.87,21.87,0,0,1,10.07,5.7.37.37,0,0,1,0,.53A.38.38,0,0,1,79.82,42Z"/></g><g id="Caminho_2414" data-name="Caminho 2414"><path class="cls-14" d="M79.58,42a.38.38,0,0,1-.33-.2,20.41,20.41,0,0,0-4.16-5.32.38.38,0,0,1,.51-.55,21,21,0,0,1,4.31,5.52.36.36,0,0,1-.15.5A.31.31,0,0,1,79.58,42Z"/></g><g id="Caminho_2415" data-name="Caminho 2415"><path class="cls-13" d="M79.68,39.29h-.05a.38.38,0,0,1-.32-.43,71.52,71.52,0,0,1,2.3-10.32.38.38,0,0,1,.72.22A71.05,71.05,0,0,0,80.05,39,.36.36,0,0,1,79.68,39.29Z"/></g><g id="Caminho_2416" data-name="Caminho 2416"><path class="cls-13" d="M79.32,43.37a.38.38,0,0,1-.22-.07.37.37,0,0,1-.07-.53c3.47-4.62,7.43-5.39,10.61-6l.9-.18a.37.37,0,1,1,.15.73l-.91.18c-3.21.62-6.85,1.33-10.16,5.72A.36.36,0,0,1,79.32,43.37Z"/></g><g id="Caminho_2417" data-name="Caminho 2417"><path class="cls-13" d="M79.79,42a.39.39,0,0,1-.35-.25c-1.9-5.25-4-10.53-6.19-15.68a.37.37,0,1,1,.69-.29c2.21,5.16,4.3,10.45,6.21,15.72a.38.38,0,0,1-.23.48Z"/></g><g id="Caminho_2418" data-name="Caminho 2418"><path class="cls-14" d="M80.31,45.08a.36.36,0,0,1-.36-.3,111.94,111.94,0,0,1-1-11.49c0-4-.1-8.12.17-12.13a.37.37,0,0,1,.4-.35.37.37,0,0,1,.35.4c-.27,4-.22,8.06-.17,12a114.47,114.47,0,0,0,.94,11.41.38.38,0,0,1-.29.45Z"/></g><g id="Caminho_2419" data-name="Caminho 2419"><path class="cls-11" d="M80.34,44.37a.39.39,0,0,1-.33-.21,41.07,41.07,0,0,0-6.76-9.47.37.37,0,1,1,.54-.52,41.6,41.6,0,0,1,6.89,9.65.39.39,0,0,1-.16.51A.58.58,0,0,1,80.34,44.37Z"/></g><g id="Caminho_2420" data-name="Caminho 2420"><path class="cls-12" d="M79.66,45h-.08a.38.38,0,0,1-.29-.44c1.51-7.72,4.54-11,6.82-12.32a.36.36,0,0,1,.51.13.37.37,0,0,1-.12.51c-2.15,1.29-5,4.38-6.47,11.82A.38.38,0,0,1,79.66,45Z"/></g></g><g id="Caminho_2421" data-name="Caminho 2421"><path class="cls-8" d="M79.79,51.06l-4.22-2.45v-8L79.79,43Z"/></g><g id="Caminho_2422" data-name="Caminho 2422"><path class="cls-7" d="M79.79,51.06,84,48.62v-8L79.79,43Z"/></g><g id="Caminho_2423" data-name="Caminho 2423"><path class="cls-10" d="M79.79,42.7l-3.63-2.05h-.59L79.79,43,84,40.65h-.59Z"/></g></g><g id="Grupo_1313" data-name="Grupo 1313"><g id="Grupo_1277" data-name="Grupo 1277"><g id="Caminho_2424" data-name="Caminho 2424"><path class="cls-15" d="M68.71,62.05V56l1.47.56,1.06.88-.3,3.86L71,63.41l-1.45-.85Z"/></g><g id="Caminho_2425" data-name="Caminho 2425"><path class="cls-16" d="M70.18,56.59l.65,6.7,1.61-.92,5.67-3.2L77,52.82Z"/></g><g id="Caminho_2426" data-name="Caminho 2426"><path class="cls-15" d="M77,52.82l-1.39-.54L68.71,56l1.47.55Z"/></g><g id="Caminho_2427" data-name="Caminho 2427"><path class="cls-17" d="M77,66.93l7.12-4.15-6-3.61-5.67,3.2-1.61.92,5.11,3.45Z"/></g><g id="Grupo_1274" data-name="Grupo 1274"><g id="Caminho_2428" data-name="Caminho 2428"><path class="cls-18" d="M77,74.72l.52-.3V68.69L77,68.9Z"/></g><g id="Caminho_2429" data-name="Caminho 2429"><path class="cls-4" d="M77,74.72l-.53-.3V68.69l.53.21Z"/></g></g><g id="Grupo_1275" data-name="Grupo 1275"><g id="Caminho_2430" data-name="Caminho 2430"><path class="cls-18" d="M83.61,71.71l.52-.3V65.68l-.52.2Z"/></g><g id="Caminho_2431" data-name="Caminho 2431"><path class="cls-4" d="M83.61,71.71l-.52-.3V65.68l.52.2Z"/></g></g><g id="Grupo_1276" data-name="Grupo 1276"><g id="Caminho_2432" data-name="Caminho 2432"><path class="cls-18" d="M69.23,71.24l.52-.3V65.21l-.52.21Z"/></g><g id="Caminho_2433" data-name="Caminho 2433"><path class="cls-4" d="M69.23,71.24l-.52-.3V65.21l.52.21Z"/></g></g><g id="Caminho_2434" data-name="Caminho 2434"><path class="cls-15" d="M68.71,62.05V65.3L77,70.09V66.92Z"/></g><g id="Caminho_2435" data-name="Caminho 2435"><path class="cls-16" d="M77,66.93V70.1L84.13,66V62.78Z"/></g></g><g id="Grupo_1281" data-name="Grupo 1281"><g id="Caminho_2436" data-name="Caminho 2436"><path class="cls-15" d="M56.38,67.83v-6l1.46.55,1.07.89-.3,3.85.09,2.08-1.45-.85Z"/></g><g id="Caminho_2437" data-name="Caminho 2437"><path class="cls-16" d="M57.84,62.37l.66,6.7,1.61-.92L65.78,65,64.62,58.6Z"/></g><g id="Caminho_2438" data-name="Caminho 2438"><path class="cls-15" d="M64.62,58.6l-1.39-.54-6.85,3.76,1.46.55Z"/></g><g id="Caminho_2439" data-name="Caminho 2439"><path class="cls-17" d="M64.68,72.71l7.12-4.16-6-3.6-5.67,3.2-1.61.92,5.11,3.45Z"/></g><g id="Grupo_1278" data-name="Grupo 1278"><g id="Caminho_2440" data-name="Caminho 2440"><path class="cls-18" d="M64.68,80.5l.52-.3V74.47l-.52.21Z"/></g><g id="Caminho_2441" data-name="Caminho 2441"><path class="cls-4" d="M64.68,80.5l-.52-.3V74.47l.52.21Z"/></g></g><g id="Grupo_1279" data-name="Grupo 1279"><g id="Caminho_2442" data-name="Caminho 2442"><path class="cls-18" d="M71.28,77.48l.52-.3V71.46l-.52.2Z"/></g><g id="Caminho_2443" data-name="Caminho 2443"><path class="cls-4" d="M71.28,77.48l-.52-.3V71.46l.52.2Z"/></g></g><g id="Grupo_1280" data-name="Grupo 1280"><g id="Caminho_2444" data-name="Caminho 2444"><path class="cls-18" d="M56.9,77l.52-.3V71l-.52.21Z"/></g><g id="Caminho_2445" data-name="Caminho 2445"><path class="cls-4" d="M56.9,77l-.52-.3V71l.52.21Z"/></g></g><g id="Caminho_2446" data-name="Caminho 2446"><path class="cls-15" d="M56.38,67.83v3.25l8.3,4.79V72.7Z"/></g><g id="Caminho_2447" data-name="Caminho 2447"><path class="cls-16" d="M64.68,72.71v3.16l7.12-4.14V68.55Z"/></g></g><g id="Grupo_1285" data-name="Grupo 1285"><g id="Caminho_2448" data-name="Caminho 2448"><path class="cls-15" d="M45.61,76.46v-6l1.46.55,1.06.89-.3,3.85.1,2.07L46.48,77Z"/></g><g id="Caminho_2449" data-name="Caminho 2449"><path class="cls-16" d="M47.07,71l.66,6.7,1.61-.92L55,73.58l-1.17-6.35Z"/></g><g id="Caminho_2450" data-name="Caminho 2450"><path class="cls-15" d="M53.84,67.23l-1.39-.55-6.84,3.77,1.46.55Z"/></g><g id="Caminho_2451" data-name="Caminho 2451"><path class="cls-17" d="M53.91,81.34,61,77.18l-6-3.61-5.67,3.2-1.61.93,5.1,3.44Z"/></g><g id="Grupo_1282" data-name="Grupo 1282"><g id="Caminho_2452" data-name="Caminho 2452"><path class="cls-18" d="M53.91,89.13l.52-.3V83.1l-.52.2Z"/></g><g id="Caminho_2453" data-name="Caminho 2453"><path class="cls-4" d="M53.91,89.13l-.52-.3V83.1l.52.2Z"/></g></g><g id="Grupo_1283" data-name="Grupo 1283"><g id="Caminho_2454" data-name="Caminho 2454"><path class="cls-18" d="M60.5,86.11l.53-.3V80.09l-.53.2Z"/></g><g id="Caminho_2455" data-name="Caminho 2455"><path class="cls-4" d="M60.5,86.11l-.52-.3V80.09l.52.2Z"/></g></g><g id="Grupo_1284" data-name="Grupo 1284"><g id="Caminho_2456" data-name="Caminho 2456"><path class="cls-18" d="M46.13,85.65l.52-.3V79.62l-.52.21Z"/></g><g id="Caminho_2457" data-name="Caminho 2457"><path class="cls-4" d="M46.13,85.65l-.52-.3V79.62l.52.21Z"/></g></g><g id="Caminho_2458" data-name="Caminho 2458"><path class="cls-15" d="M45.61,76.46v3.25l8.3,4.79V81.33Z"/></g><g id="Caminho_2459" data-name="Caminho 2459"><path class="cls-16" d="M53.91,81.34V84.5L61,80.36V77.18Z"/></g></g><g id="Grupo_1287" data-name="Grupo 1287"><g id="Grupo_1286" data-name="Grupo 1286"><g id="Elipse_159" data-name="Elipse 159"><ellipse class="cls-19" cx="81.14" cy="92.91" rx="6.03" ry="3.48" transform="translate(-19.67 21.83) rotate(-13.68)"/></g><g id="Elipse_160" data-name="Elipse 160"><ellipse class="cls-5" cx="81.14" cy="91.93" rx="6.03" ry="3.48" transform="translate(-19.44 21.8) rotate(-13.68)"/></g><g id="Linha_83" data-name="Linha 83"><path class="cls-20" d="M81.09,92.2a1.5,1.5,0,0,1-1.5-1.5V77.88a1.5,1.5,0,0,1,3,0V90.7A1.5,1.5,0,0,1,81.09,92.2Z"/></g></g><g id="Elipse_161" data-name="Elipse 161"><ellipse class="cls-21" cx="80.72" cy="77.91" rx="25.6" ry="14.45" transform="translate(-16.14 21.3) rotate(-13.68)"/></g><g id="Elipse_162" data-name="Elipse 162"><ellipse class="cls-19" cx="80.72" cy="77" rx="25.6" ry="14.45" transform="translate(-15.92 21.28) rotate(-13.68)"/></g></g><g id="Grupo_1292" data-name="Grupo 1292"><g id="Grupo_1288" data-name="Grupo 1288"><g id="Caminho_2460" data-name="Caminho 2460"><path class="cls-18" d="M51.71,104.63l-.52-.3v-5.7l.52.2Z"/></g><g id="Caminho_2461" data-name="Caminho 2461"><path class="cls-4" d="M51.71,104.63l.52-.3v-5.7l-.52.2Z"/></g></g><g id="Grupo_1289" data-name="Grupo 1289"><g id="Caminho_2462" data-name="Caminho 2462"><path class="cls-18" d="M44.21,100.67l-.52-.3v-5.7l.52.21Z"/></g><g id="Caminho_2463" data-name="Caminho 2463"><path class="cls-4" d="M44.21,100.67l.51-.3v-5.7l-.51.21Z"/></g></g><g id="Grupo_1290" data-name="Grupo 1290"><g id="Caminho_2464" data-name="Caminho 2464"><path class="cls-18" d="M58.38,100.81l-.51-.3v-5.7l.51.21Z"/></g><g id="Caminho_2465" data-name="Caminho 2465"><path class="cls-4" d="M58.39,100.81l.51-.3v-5.7l-.51.21Z"/></g></g><g id="Grupo_1291" data-name="Grupo 1291"><g id="Caminho_2466" data-name="Caminho 2466"><path class="cls-17" d="M58.91,91.73l-6.54-3.47-2.61,1.27.29,3.83L52.49,96,57.12,94Z"/></g><g id="Caminho_2467" data-name="Caminho 2467"><path class="cls-15" d="M51.7,95.82l7.2-4.09v3.09l-7.2,4.26Z"/></g><g id="Caminho_2468" data-name="Caminho 2468"><path class="cls-15" d="M54.12,95.79l-.58-6.42-1.84.81v8.14Z"/></g><g id="Caminho_2469" data-name="Caminho 2469"><path class="cls-16" d="M51.7,95.56l-8-4.48v-5.3l8,4.4v5.39Z"/></g><g id="Caminho_2470" data-name="Caminho 2470"><path class="cls-17" d="M53.54,89.37l-1.84.81-8-4.4,1.74-.93Z"/></g><g id="Caminho_2471" data-name="Caminho 2471"><path class="cls-16" d="M51.7,95.56v3.52l-8-4.41V91.08Z"/></g></g></g><g id="Grupo_1297" data-name="Grupo 1297"><g id="Grupo_1293" data-name="Grupo 1293"><g id="Caminho_2472" data-name="Caminho 2472"><path class="cls-18" d="M64.41,111.23l-.52-.3v-5.7l.52.2Z"/></g><g id="Caminho_2473" data-name="Caminho 2473"><path class="cls-4" d="M64.4,111.23l.52-.3v-5.7l-.52.2Z"/></g></g><g id="Grupo_1294" data-name="Grupo 1294"><g id="Caminho_2474" data-name="Caminho 2474"><path class="cls-18" d="M56.9,107.27l-.52-.3v-5.7l.52.21Z"/></g><g id="Caminho_2475" data-name="Caminho 2475"><path class="cls-4" d="M56.9,107.27l.52-.3v-5.7l-.52.21Z"/></g></g><g id="Grupo_1295" data-name="Grupo 1295"><g id="Caminho_2476" data-name="Caminho 2476"><path class="cls-18" d="M71.08,107.41l-.52-.3v-5.7l.52.2Z"/></g><g id="Caminho_2477" data-name="Caminho 2477"><path class="cls-4" d="M71.08,107.41l.52-.3v-5.7l-.52.2Z"/></g></g><g id="Grupo_1296" data-name="Grupo 1296"><g id="Caminho_2478" data-name="Caminho 2478"><path class="cls-17" d="M71.6,98.33l-6.54-3.47-2.61,1.26.29,3.84,2.44,2.62,4.63-1.94Z"/></g><g id="Caminho_2479" data-name="Caminho 2479"><path class="cls-15" d="M64.4,102.42l7.2-4.09v3.09l-7.2,4.26Z"/></g><g id="Caminho_2480" data-name="Caminho 2480"><path class="cls-15" d="M66.82,102.39,66.23,96l-1.83.81v8.14Z"/></g><g id="Caminho_2481" data-name="Caminho 2481"><path class="cls-16" d="M64.4,102.16l-8-4.48v-5.3l8,4.4v5.39Z"/></g><g id="Caminho_2482" data-name="Caminho 2482"><path class="cls-17" d="M66.23,96l-1.83.81-8-4.4,1.75-.93Z"/></g><g id="Caminho_2483" data-name="Caminho 2483"><path class="cls-16" d="M64.4,102.16v3.52l-8-4.41V97.68Z"/></g></g></g><g id="Grupo_1302" data-name="Grupo 1302"><g id="Grupo_1298" data-name="Grupo 1298"><g id="Caminho_2484" data-name="Caminho 2484"><path class="cls-18" d="M107.88,98.69l.51-.3v-5.7l-.51.21Z"/></g><g id="Caminho_2485" data-name="Caminho 2485"><path class="cls-4" d="M107.88,98.69l-.52-.3v-5.7l.52.21Z"/></g></g><g id="Grupo_1299" data-name="Grupo 1299"><g id="Caminho_2486" data-name="Caminho 2486"><path class="cls-18" d="M115.38,94.74l.52-.3v-5.7l-.52.2Z"/></g><g id="Caminho_2487" data-name="Caminho 2487"><path class="cls-4" d="M115.38,94.74l-.52-.3v-5.7l.52.2Z"/></g></g><g id="Grupo_1300" data-name="Grupo 1300"><g id="Caminho_2488" data-name="Caminho 2488"><path class="cls-18" d="M101.2,94.88l.52-.3v-5.7l-.52.2Z"/></g><g id="Caminho_2489" data-name="Caminho 2489"><path class="cls-4" d="M101.2,94.88l-.52-.3v-5.7l.52.2Z"/></g></g><g id="Grupo_1301" data-name="Grupo 1301"><g id="Caminho_2490" data-name="Caminho 2490"><path class="cls-17" d="M100.68,85.79l6.53-3.46,2.61,1.26-.28,3.84L107.1,90l-4.63-1.93Z"/></g><g id="Caminho_2491" data-name="Caminho 2491"><path class="cls-15" d="M107.88,89.89l-7.2-4.1v3.1l7.2,4.25Z"/></g><g id="Caminho_2492" data-name="Caminho 2492"><path class="cls-15" d="M105.46,89.86l.58-6.43,1.84.81v8.14Z"/></g><g id="Caminho_2493" data-name="Caminho 2493"><path class="cls-16" d="M107.88,89.63l8-4.48v-5.3l-8,4.4v5.38Z"/></g><g id="Caminho_2494" data-name="Caminho 2494"><path class="cls-17" d="M106,83.43l1.84.81,8-4.4-1.75-.93Z"/></g><g id="Caminho_2495" data-name="Caminho 2495"><path class="cls-16" d="M107.88,89.63v3.51l8-4.41V85.14Z"/></g></g></g><g id="Grupo_1307" data-name="Grupo 1307"><g id="Grupo_1303" data-name="Grupo 1303"><g id="Caminho_2496" data-name="Caminho 2496"><path class="cls-18" d="M97.68,106.88l.52-.3v-5.7l-.52.2Z"/></g><g id="Caminho_2497" data-name="Caminho 2497"><path class="cls-4" d="M97.68,106.88l-.52-.3v-5.7l.52.2Z"/></g></g><g id="Grupo_1304" data-name="Grupo 1304"><g id="Caminho_2498" data-name="Caminho 2498"><path class="cls-18" d="M105.18,102.92l.52-.3v-5.7l-.52.21Z"/></g><g id="Caminho_2499" data-name="Caminho 2499"><path class="cls-4" d="M105.18,102.92l-.52-.3v-5.7l.52.21Z"/></g></g><g id="Grupo_1305" data-name="Grupo 1305"><g id="Caminho_2500" data-name="Caminho 2500"><path class="cls-18" d="M91,103.06l.52-.3v-5.7l-.52.21Z"/></g><g id="Caminho_2501" data-name="Caminho 2501"><path class="cls-4" d="M91,103.06l-.52-.3v-5.7l.52.21Z"/></g></g><g id="Grupo_1306" data-name="Grupo 1306"><g id="Caminho_2502" data-name="Caminho 2502"><path class="cls-17" d="M90.48,94,97,90.51l2.61,1.26-.29,3.84-2.43,2.62-4.64-1.94Z"/></g><g id="Caminho_2503" data-name="Caminho 2503"><path class="cls-15" d="M97.68,98.07,90.48,94v3.09l7.2,4.26Z"/></g><g id="Caminho_2504" data-name="Caminho 2504"><path class="cls-15" d="M95.27,98l.58-6.42,1.83.81v8.14Z"/></g><g id="Caminho_2505" data-name="Caminho 2505"><path class="cls-16" d="M97.68,97.82l8-4.49V88l-8,4.4v5.39Z"/></g><g id="Caminho_2506" data-name="Caminho 2506"><path class="cls-17" d="M95.85,91.62l1.83.81,8-4.4L104,87.1Z"/></g><g id="Caminho_2507" data-name="Caminho 2507"><path class="cls-16" d="M97.68,97.81v3.52l8-4.41V93.33Z"/></g></g></g><g id="Grupo_1312" data-name="Grupo 1312"><g id="Grupo_1308" data-name="Grupo 1308"><g id="Caminho_2508" data-name="Caminho 2508"><path class="cls-18" d="M85,112.12l.52-.3v-5.7l-.52.21Z"/></g><g id="Caminho_2509" data-name="Caminho 2509"><path class="cls-4" d="M85,112.12l-.52-.3v-5.7l.52.21Z"/></g></g><g id="Grupo_1309" data-name="Grupo 1309"><g id="Caminho_2510" data-name="Caminho 2510"><path class="cls-18" d="M92.45,108.17l.52-.3v-5.7l-.52.2Z"/></g><g id="Caminho_2511" data-name="Caminho 2511"><path class="cls-4" d="M92.45,108.17l-.52-.3v-5.7l.52.2Z"/></g></g><g id="Grupo_1310" data-name="Grupo 1310"><g id="Caminho_2512" data-name="Caminho 2512"><path class="cls-18" d="M78.27,108.3l.52-.3v-5.7l-.52.21Z"/></g><g id="Caminho_2513" data-name="Caminho 2513"><path class="cls-4" d="M78.27,108.3l-.52-.3v-5.7l.52.21Z"/></g></g><g id="Grupo_1311" data-name="Grupo 1311"><g id="Caminho_2514" data-name="Caminho 2514"><path class="cls-17" d="M77.75,99.22l6.54-3.46L86.9,97l-.29,3.84-2.44,2.61-4.63-1.94Z"/></g><g id="Caminho_2515" data-name="Caminho 2515"><path class="cls-15" d="M85,103.31l-7.2-4.09v3.09l7.2,4.26Z"/></g><g id="Caminho_2516" data-name="Caminho 2516"><path class="cls-15" d="M82.53,103.29l.59-6.43,1.83.81v8.14Z"/></g><g id="Caminho_2517" data-name="Caminho 2517"><path class="cls-16" d="M85,103.06l8-4.49v-5.3l-8,4.4v5.39Z"/></g><g id="Caminho_2518" data-name="Caminho 2518"><path class="cls-17" d="M83.11,96.86l1.84.81,8-4.4-1.75-.93Z"/></g><g id="Caminho_2519" data-name="Caminho 2519"><path class="cls-16" d="M85,103.06v3.51l8-4.41V98.57Z"/></g></g></g></g><g id="Grupo_1314" data-name="Grupo 1314"><g id="Caminho_2520" data-name="Caminho 2520"><path class="cls-22" d="M97.61,24.69V43.58l35.11,20.09V44.94Z"/></g></g><g id="Linha_84" data-name="Linha 84"><rect class="cls-6" x="106.89" y="27.03" width="2" height="15.69" transform="translate(23.77 110.9) rotate(-60.02)"/></g><g id="Linha_85" data-name="Linha 85"><rect class="cls-6" x="104.6" y="31.93" width="2" height="10.39" transform="translate(20.67 110.04) rotate(-60.02)"/></g><g id="Linha_86" data-name="Linha 86"><rect class="cls-6" x="106.29" y="35.46" width="2" height="14.29" transform="translate(16.77 114.24) rotate(-60.02)"/></g><g id="Linha_87" data-name="Linha 87"><rect class="cls-6" x="104.42" y="38.89" width="2" height="9.97" transform="translate(14.74 113.26) rotate(-60.02)"/></g></g><g id="Caminho_2521" data-name="Caminho 2521"><path class="cls-23" d="M157.58,92.45l2.86-1.78V45.85l-2.86,1.67Z"/></g><g id="Caminho_2522" data-name="Caminho 2522"><path class="cls-24" d="M157.58,47.52,80.18,3.15,83,1.66l77.46,44.2Z"/></g><g id="Caminho_2523" data-name="Caminho 2523"><path class="cls-24" d="M80.19,0,0,46.29l2.8,1.49L83.05,1.66Z"/></g><g id="Caminho_2524" data-name="Caminho 2524"><path class="cls-25" d="M2.77,47.72V92.45L0,90.77V46.25Z"/></g></g></g></g></svg>