<svg width="64" height="28" viewBox="0 0 64 28" fill="none" xmlns="http://www.w3.org/2000/svg">
<path d="M6.19685 8.85625H4.63819L1.21861 13.0529V8.85625H0V19.3551H1.21861V14.0842L5.49997 19.3425H7.09557L2.22475 13.5562L6.19685 8.85625Z" fill="#EDEDED"/>
<path d="M25.699 13.2387L25.6749 13.2315C24.4034 12.874 23.7144 12.4754 23.7144 11.3953C23.7144 10.4111 24.4142 9.77516 25.497 9.77516C26.7143 9.77516 27.3917 10.5062 27.4044 11.8335L27.4054 11.9347L28.5989 11.9498L28.5981 11.8442C28.5849 9.85472 27.3966 8.61891 25.497 8.61891C23.7724 8.61891 22.5207 9.78131 22.5207 11.3828C22.5207 13.2621 23.8532 13.9099 25.2946 14.3303C26.7954 14.7457 27.7791 15.1144 27.7791 16.4036C27.7791 17.5563 26.8459 18.3612 25.5095 18.3612C24.0904 18.3612 23.1652 17.4111 23.1524 15.9408L23.1515 15.8382H21.9456L21.9462 15.9422C21.9595 18.0806 23.3915 19.5173 25.5095 19.5173C27.5634 19.5173 28.9979 18.2421 28.9979 16.4162C28.9979 14.2259 27.2452 13.7015 25.699 13.2387Z" fill="#EDEDED"/>
<path d="M36.7955 17.5564L32.8139 9.42724H31.5638V18.9104H32.6837V11.5879L36.2806 18.9104H37.3113L40.874 11.613V18.9104H41.9941V9.42724H40.7437L36.7955 17.5564Z" fill="#EDEDED"/>
<path d="M48.3635 15.8526C49.5856 14.0487 50.3601 12.2515 50.6769 10.5374C52.2092 11.0239 53.2905 12.438 53.2905 14.1518C53.2905 16.2871 51.6229 17.9595 49.494 17.9595C48.6704 17.9595 47.9163 17.7099 47.2998 17.2815C47.6801 16.8129 48.0358 16.3362 48.3635 15.8526ZM45.6864 14.1518C45.6864 12.0232 47.3589 10.3556 49.494 10.3556C49.555 10.3556 49.6155 10.3573 49.6756 10.3601C49.3809 11.9618 48.6394 13.6564 47.4638 15.3682C47.1799 15.7816 46.8743 16.1896 46.5494 16.5917C46.0081 15.9354 45.6864 15.0882 45.6864 14.1518ZM16.154 12.7208C16.4534 12.279 16.7769 11.8428 17.1229 11.4137C17.8314 12.0995 18.2666 13.0652 18.2666 14.1518C18.2666 16.2871 16.5991 17.9595 14.4703 17.9595C14.2946 17.9595 14.1224 17.9471 13.9537 17.9252C14.2074 16.2689 14.9452 14.5052 16.154 12.7208ZM14.4703 10.3556C15.1368 10.3556 15.758 10.5192 16.2971 10.809C15.9443 11.2484 15.6138 11.6948 15.3072 12.1472C14.0387 14.0198 13.2512 15.8853 12.9587 17.6577C11.5962 17.0834 10.6626 15.7469 10.6626 14.1518C10.6626 12.0232 12.3351 10.3556 14.4703 10.3556ZM22.8095 26.8867C18.6946 26.4865 15.7411 24.8034 14.4933 22.1475C14.0445 21.1922 13.8347 20.1473 13.8562 19.0417C14.0572 19.0657 14.2618 19.0795 14.4703 19.0795C17.2272 19.0795 19.3867 16.915 19.3867 14.1518C19.3867 12.7182 18.8017 11.447 17.8533 10.556C20.2026 7.93444 23.3955 5.6154 27.0823 3.88341C31.0663 2.01168 35.1682 1.02241 38.9449 1.02241C39.5962 1.02241 40.241 1.05296 40.8613 1.11321C44.9762 1.51335 47.9297 3.19648 49.1775 5.85241C49.6661 6.89215 49.8733 8.03555 49.8083 9.24605C49.7044 9.23982 49.5998 9.23559 49.494 9.23559C46.7309 9.23559 44.5664 11.395 44.5664 14.1518C44.5664 15.4352 45.0338 16.5889 45.8108 17.4572C43.4603 20.0724 40.2681 22.3879 36.5885 24.1166C31.9144 26.3127 27.021 27.2962 22.8095 26.8867ZM50.8205 9.41111C50.9161 7.992 50.6801 6.64515 50.1033 5.41764C48.6958 2.4219 45.4488 0.5317 40.9602 0.0953159C36.5682 -0.331602 31.4852 0.684908 26.6474 2.9577C22.81 4.76056 19.4835 7.1871 17.0363 9.9366C16.2936 9.49037 15.4172 9.23559 14.4703 9.23559C11.7071 9.23559 9.54263 11.395 9.54263 14.1518C9.54263 16.3404 10.9011 18.1522 12.8389 18.8115C12.7814 20.1488 13.0211 21.4192 13.5675 22.5823C14.975 25.578 18.2221 27.4681 22.7106 27.9045C23.3617 27.9678 24.0384 28 24.722 28C28.6509 28 32.9046 26.9772 37.0234 25.0423C40.825 23.2562 44.1258 20.8581 46.5665 18.1401C47.38 18.7325 48.3889 19.0795 49.494 19.0795C52.251 19.0795 54.4105 16.915 54.4105 14.1518C54.4105 11.8565 52.9129 9.97662 50.8205 9.41111Z" fill="#EDEDED"/>
<path d="M60.4317 13.3823L60.4103 13.3759C59.2417 13.0473 58.6484 12.7024 58.6484 11.7285C58.6484 10.8466 59.2758 10.2767 60.2469 10.2767C61.339 10.2767 61.9466 10.9328 61.9582 12.1241L61.9592 12.2253L63.0563 12.2392L63.0556 12.1337C63.0435 10.3322 61.9673 9.21298 60.2469 9.21298C58.6848 9.21298 57.5509 10.2662 57.5509 11.7173C57.5509 13.42 58.7569 14.0065 60.0615 14.3869C61.4114 14.7605 62.2962 15.0918 62.2962 16.2484C62.2962 17.2825 61.4582 18.0047 60.2581 18.0047C58.9837 18.0047 58.1527 17.1512 58.1411 15.8304L58.1403 15.7278H57.0318L57.0325 15.8318C57.0445 17.7676 58.3407 19.0681 60.2581 19.0681C62.1176 19.0681 63.4162 17.9133 63.4162 16.2597C63.4162 14.2754 61.8306 13.8009 60.4317 13.3823Z" fill="#EDEDED"/>
</svg>
